<?xml version="1.0" standalone="no"?>
<!DOCTYPE svg PUBLIC "-//W3C//DTD SVG 20010904//EN"
 "http://www.w3.org/TR/2001/REC-SVG-20010904/DTD/svg10.dtd">
<svg version="1.0" xmlns="http://www.w3.org/2000/svg"
 width="400.000000pt" height="400.000000pt" viewBox="0 0 400.000000 400.000000"
 preserveAspectRatio="xMidYMid meet">
<metadata>
Created by potrace 1.11, written by Peter Selinger 2001-2013
</metadata>
<g transform="translate(0.000000,400.000000) scale(0.100000,-0.100000)"
fill="#000000" stroke="none">
<path d="M1883 3975 c-13 -12 -23 -31 -23 -42 0 -25 -36 -63 -60 -63 -10 0
-31 10 -47 23 -15 13 -36 27 -46 30 -15 6 -18 2 -16 -21 2 -15 -2 -35 -8 -46
-8 -15 -14 -16 -32 -7 -20 11 -21 10 -17 -11 7 -36 25 -78 47 -109 16 -22 28
-29 55 -29 28 0 34 -4 34 -21 0 -12 8 -23 20 -26 11 -3 20 -9 20 -13 0 -9 52
-6 68 4 7 4 12 2 12 -3 0 -6 11 -11 25 -11 19 0 25 -5 25 -22 0 -17 3 -19 12
-10 7 7 22 12 35 12 13 0 23 5 23 11 0 8 5 8 15 -1 8 -7 15 -9 15 -4 0 5 6 1
13 -8 7 -9 20 -16 28 -16 33 2 49 -3 49 -16 0 -10 9 -12 42 -6 48 9 83 -1 115
-33 12 -12 28 -27 35 -33 31 -27 59 -67 54 -79 -2 -7 4 -15 15 -18 10 -3 23
-16 28 -29 5 -12 18 -30 30 -38 12 -8 21 -21 21 -28 0 -8 6 -12 15 -9 22 9 28
-9 26 -89 -1 -48 2 -74 9 -74 7 0 9 8 5 20 -3 11 -2 28 4 37 10 17 11 16 17
-4 8 -27 21 -30 26 -5 3 9 5 -2 6 -26 0 -23 -3 -40 -8 -37 -4 3 -6 -4 -3 -14
7 -27 33 -36 33 -12 0 12 10 21 26 25 15 4 24 10 20 13 -3 3 4 19 15 34 11 16
18 33 15 38 -3 5 3 7 14 4 11 -3 20 -11 20 -18 0 -7 7 -18 15 -25 8 -7 15 -19
15 -27 0 -21 20 -38 63 -54 20 -7 37 -17 37 -21 0 -4 18 -8 41 -8 22 0 49 -5
60 -11 15 -8 25 -7 37 2 14 11 15 11 5 0 -16 -19 32 -60 50 -42 6 6 24 11 40
11 17 0 36 8 43 18 12 15 15 15 24 2 14 -22 12 -60 -4 -60 -25 0 -27 -31 -4
-49 l21 -18 -24 -16 c-19 -14 -20 -17 -6 -17 9 0 17 -4 17 -9 0 -5 13 -23 29
-40 27 -29 28 -34 19 -69 -9 -32 -54 -100 -102 -154 -9 -10 -16 -25 -16 -33 0
-8 -4 -15 -9 -15 -15 0 -45 -54 -33 -58 16 -5 15 -39 -1 -49 -7 -4 -18 -20
-24 -35 -11 -24 -10 -28 5 -29 10 -1 7 -4 -8 -8 -18 -5 -24 -13 -22 -29 2 -17
-2 -22 -17 -22 -16 0 -21 -6 -21 -24 0 -14 5 -28 10 -31 6 -4 8 -10 5 -15 -3
-4 6 -41 19 -81 22 -70 41 -204 38 -278 0 -18 -10 -43 -21 -55 -11 -11 -23
-33 -26 -48 -4 -16 -11 -28 -16 -28 -5 0 -6 -7 -3 -15 4 -9 -2 -18 -17 -24
-13 -5 -20 -10 -15 -10 5 -1 4 -7 -2 -13 -6 -7 -11 -16 -11 -21 0 -4 -8 -33
-18 -65 -9 -31 -19 -64 -21 -72 -3 -8 -5 -45 -6 -82 0 -36 -4 -70 -8 -74 -10
-9 10 -34 28 -34 8 0 14 -7 14 -15 0 -12 6 -11 32 5 19 11 41 17 54 14 12 -3
25 -1 28 5 5 7 15 6 30 -4 21 -14 24 -14 30 1 5 12 15 15 39 11 22 -3 35 1 44
12 10 14 13 14 30 -2 21 -19 38 -23 28 -7 -3 5 -2 10 2 10 15 0 63 -25 63 -32
0 -5 7 -8 15 -8 20 0 19 -9 -2 -33 -17 -18 -17 -20 3 -36 12 -9 25 -28 29 -42
4 -13 15 -38 25 -56 25 -44 28 -75 7 -106 -9 -14 -17 -31 -17 -37 0 -16 -23
-37 -46 -42 -10 -2 -20 -11 -22 -21 -3 -13 3 -17 24 -17 36 0 88 34 113 73 11
18 34 41 51 52 26 17 31 25 27 50 -5 33 -36 87 -78 138 -31 38 -42 84 -19 78
37 -9 94 -10 104 -2 6 5 25 11 41 13 25 2 29 7 27 27 -2 13 2 28 10 32 10 7 8
9 -5 9 -30 0 -87 31 -87 46 0 8 7 14 15 14 8 0 15 -5 15 -12 0 -6 8 -3 20 7
14 12 28 16 49 12 17 -4 33 -2 36 3 11 17 23 11 27 -12 4 -20 6 -19 23 15 22
44 44 43 87 -3 22 -23 27 -41 33 -104 8 -88 -2 -138 -48 -241 -34 -77 -41 -88
-112 -170 -102 -118 -222 -195 -365 -235 -153 -42 -272 -19 -389 75 -24 19
-47 35 -51 35 -16 0 -32 -30 -25 -47 9 -20 11 -30 13 -57 2 -16 9 -18 77 -13
70 5 75 4 75 -14 0 -13 5 -18 13 -14 6 4 5 1 -3 -7 -9 -7 -14 -21 -12 -30 2
-10 -1 -18 -7 -18 -13 0 -51 -36 -45 -43 2 -2 -10 -19 -28 -38 -42 -43 -98
-117 -98 -127 0 -5 -16 -22 -35 -38 -21 -17 -33 -35 -30 -43 3 -8 1 -17 -4
-20 -5 -3 -11 -17 -12 -31 -4 -27 -21 -50 -38 -50 -12 0 -41 -52 -41 -75 0 -8
-4 -15 -10 -15 -5 0 -10 -6 -10 -13 0 -7 -9 -18 -20 -25 -11 -7 -20 -18 -20
-25 0 -8 -22 -28 -49 -45 -27 -18 -51 -41 -54 -52 -5 -20 -1 -20 774 -20 l779
0 0 1689 c0 1342 -3 1690 -12 1694 -10 4 -10 8 0 15 11 7 11 10 -2 15 -8 3
-20 25 -27 49 -15 53 -34 76 -77 94 -32 13 -34 16 -28 48 5 24 2 39 -9 50 -9
9 -13 21 -9 27 4 7 2 10 -5 8 -7 -3 -31 13 -54 34 -23 21 -61 43 -86 51 -36
10 -49 20 -62 47 -15 30 -21 34 -63 35 -61 2 -86 25 -86 75 0 21 5 41 10 44
17 10 11 25 -10 25 -10 0 -24 -9 -30 -19 -5 -11 -17 -27 -26 -35 -15 -15 -19
-15 -52 6 -21 12 -41 28 -45 35 -6 11 -143 13 -715 12 l-707 -1 -22 -23z
m-173 -215 c0 -5 -2 -10 -4 -10 -3 0 -8 5 -11 10 -3 6 -1 10 4 10 6 0 11 -4
11 -10z m1390 -2350 c0 -5 -2 -10 -4 -10 -3 0 -8 5 -11 10 -3 6 -1 10 4 10 6
0 11 -4 11 -10z"/>
<path d="M2256 3542 c-3 -5 1 -9 9 -9 8 0 12 4 9 9 -3 4 -7 8 -9 8 -2 0 -6 -4
-9 -8z"/>
<path d="M990 3364 c-8 -1 -62 -8 -120 -14 -111 -12 -301 -56 -385 -89 -148
-57 -297 -121 -305 -132 -3 -3 -16 -10 -29 -14 -13 -4 -45 -20 -70 -36 -25
-16 -54 -32 -63 -35 -14 -5 -18 -18 -18 -56 l0 -49 33 24 c72 55 385 196 475
216 29 6 79 20 112 31 74 25 85 25 109 1 14 -14 21 -16 25 -8 3 9 5 8 5 -1 1
-9 14 -5 44 12 41 23 70 27 94 13 6 -4 15 -3 18 3 4 6 16 8 28 5 16 -5 18 -4
8 3 -11 8 -10 13 5 31 27 30 47 27 132 -25 69 -42 77 -44 100 -32 44 23 39 40
-35 98 -49 38 -115 60 -163 54z"/>
<path d="M1107 3146 c-26 -11 -67 -60 -67 -78 0 -5 12 -8 28 -8 67 -1 96 -77
33 -87 -52 -7 -60 -14 -66 -51 -4 -20 -10 -46 -14 -57 -6 -14 -4 -28 5 -40 8
-10 14 -28 14 -39 0 -17 7 -13 36 22 33 38 74 56 74 32 0 -5 7 -10 15 -10 23
0 18 -35 -12 -70 -18 -22 -26 -43 -26 -69 0 -35 -2 -37 -28 -33 -20 3 -35 -3
-53 -21 -14 -15 -26 -30 -26 -35 0 -10 65 -40 95 -44 25 -2 65 11 65 22 0 4
21 18 48 31 26 12 59 32 74 43 31 22 68 86 68 117 0 11 11 31 25 45 25 25 33
68 15 79 -5 3 -10 24 -10 45 0 24 -6 44 -16 52 -8 7 -23 21 -32 32 -67 74
-120 110 -147 100 -10 -4 -22 1 -31 15 -17 24 -27 25 -67 7z"/>
<path d="M350 2890 c-14 -11 -54 -34 -90 -52 -36 -18 -105 -59 -154 -90 -49
-32 -93 -58 -98 -58 -4 0 -8 -22 -8 -50 0 -38 4 -50 15 -50 8 0 15 5 15 10 0
6 5 10 12 10 6 0 26 11 44 25 18 14 35 25 39 25 3 0 35 23 71 50 83 64 116 81
134 70 11 -7 11 -11 1 -24 -8 -9 -20 -16 -27 -16 -8 0 -14 -4 -14 -10 0 -5
-27 -24 -61 -40 -33 -17 -79 -44 -101 -61 -23 -16 -46 -29 -53 -29 -7 0 -22
-9 -34 -19 -13 -11 -27 -21 -32 -23 -6 -2 -9 -32 -7 -66 l3 -63 120 81 c205
139 232 153 288 147 42 -6 51 -3 81 23 41 36 59 76 54 121 -3 35 -6 36 -59 23
-23 -5 -29 -1 -50 38 -28 49 -52 57 -89 28z"/>
<path d="M1746 2871 c-4 -6 -23 -11 -42 -11 -46 0 -85 -37 -80 -77 2 -15 1
-22 -1 -15 -2 6 -8 12 -13 12 -5 0 -7 8 -3 18 4 12 3 14 -5 7 -18 -17 20 -82
67 -117 l40 -29 -20 -39 c-20 -38 -22 -97 -4 -143 4 -10 0 -28 -9 -42 -19 -28
-20 -35 -6 -35 6 0 10 7 10 15 0 12 47 45 64 45 3 0 -4 -16 -15 -35 -12 -19
-18 -35 -14 -35 5 0 -4 -11 -19 -25 -15 -14 -24 -25 -21 -25 3 0 1 -10 -6 -21
-8 -16 -8 -20 1 -14 13 8 52 -23 44 -36 -3 -5 -1 -9 5 -9 5 0 13 -9 16 -20 3
-11 18 -23 33 -27 15 -3 32 -11 39 -17 30 -27 40 -33 61 -38 21 -6 32 7 13 14
-10 3 -14 21 -12 57 1 19 4 21 15 12 11 -9 14 -6 14 15 0 18 -9 31 -30 44 -18
11 -25 20 -19 25 6 3 8 17 5 31 -10 40 3 69 47 97 50 33 58 33 103 5 39 -25
44 -39 20 -59 -8 -7 -24 -30 -35 -50 -37 -73 -21 -112 54 -133 28 -9 77 -16
109 -18 31 -2 55 -5 53 -8 -2 -3 17 -26 43 -50 36 -35 47 -41 50 -28 2 10 9
15 18 11 38 -14 -1 129 -59 216 -61 91 -183 215 -221 225 -17 4 -25 11 -20 16
11 11 66 1 58 -11 -7 -11 -1 -11 31 1 19 7 30 7 39 -2 8 -7 24 -20 36 -28 13
-8 28 -20 33 -26 8 -7 19 -8 39 0 23 8 31 7 50 -11 13 -11 34 -24 47 -28 21
-6 23 -5 18 14 -7 29 7 26 45 -9 25 -22 29 -29 16 -30 -10 0 -18 -4 -18 -10 0
-11 20 -13 44 -4 14 5 14 8 1 27 -8 12 -15 27 -15 34 0 7 -9 23 -20 36 -12 13
-29 39 -39 58 -11 20 -27 35 -41 37 -22 4 -70 47 -70 63 0 4 -22 12 -49 18
-27 6 -83 31 -124 56 -41 25 -83 45 -94 45 -10 0 -28 7 -39 15 -24 16 -55 24
-139 32 -33 3 -63 10 -66 16 -4 5 -9 5 -13 -2z"/>
<path d="M1460 2820 c0 -5 4 -10 9 -10 6 0 13 5 16 10 3 6 -1 10 -9 10 -9 0
-16 -4 -16 -10z"/>
<path d="M1500 2804 c0 -8 5 -12 10 -9 6 3 10 10 10 16 0 5 -4 9 -10 9 -5 0
-10 -7 -10 -16z"/>
<path d="M740 2465 c-8 -9 -8 -15 -2 -15 12 0 26 19 19 26 -2 2 -10 -2 -17
-11z"/>
<path d="M674 2411 c-70 -43 -362 -365 -459 -507 -32 -46 -52 -55 -62 -26 -12
32 -103 187 -128 217 l-24 30 -1 -36 c0 -24 9 -49 28 -75 40 -56 106 -193 105
-216 -2 -27 -31 -68 -47 -68 -8 0 -16 10 -19 23 -11 42 -52 156 -60 163 -4 4
-7 -425 -7 -954 l0 -962 126 0 c118 0 127 1 145 23 10 12 18 25 19 29 0 4 20
39 45 78 25 39 45 72 45 74 0 2 23 39 51 81 l51 76 22 -20 c12 -12 26 -21 30
-21 4 0 13 -6 20 -12 7 -7 27 -25 45 -41 30 -26 36 -49 32 -113 -2 -15 10 -26
46 -42 26 -13 59 -25 73 -27 14 -3 41 -8 60 -12 19 -4 41 -6 47 -5 7 2 23 -6
34 -17 12 -11 27 -17 33 -13 7 4 4 8 -7 10 -10 2 -16 9 -14 15 5 17 47 21 47
6 0 -8 5 -6 13 5 15 20 31 21 117 6 36 -6 85 -13 110 -15 25 -3 56 -9 70 -14
14 -5 38 -12 53 -15 15 -4 25 -10 23 -15 -3 -5 11 0 31 10 21 11 48 19 61 19
13 0 21 4 17 10 -3 5 7 9 22 9 39 -1 120 19 171 42 24 11 47 17 51 14 5 -3 11
1 14 8 6 15 -82 21 -118 7 -15 -6 -27 -6 -30 0 -3 5 -12 7 -20 4 -8 -3 -20 -2
-27 2 -7 5 -30 8 -51 7 -33 -1 -36 1 -26 14 8 9 24 13 41 11 16 -3 33 1 40 9
14 17 2 31 -14 15 -16 -16 -48 13 -48 44 0 18 -4 22 -16 17 -12 -4 -15 -2 -12
8 3 8 16 13 31 11 36 -4 77 25 77 54 0 31 45 45 63 20 11 -15 14 -15 32 -2 20
16 20 16 -2 22 -19 5 -20 9 -10 25 6 10 17 19 23 19 14 0 26 27 15 34 -4 3
-14 -4 -21 -15 -19 -25 -30 -24 -30 1 0 12 -6 27 -12 34 -11 12 -16 12 -32 -2
-18 -16 -19 -16 -14 3 5 21 0 22 -59 16 -7 0 -13 -12 -13 -26 0 -25 -15 -35
-22 -15 -2 6 -13 2 -26 -10 -12 -11 -22 -16 -22 -10 0 6 -20 -5 -44 -24 -47
-39 -79 -47 -74 -18 2 11 -2 16 -12 13 -8 -3 -28 -4 -44 -3 -18 1 -35 -6 -46
-21 l-18 -22 5 28 c3 15 12 27 19 27 8 0 14 5 14 11 0 6 -9 9 -20 6 -11 -3
-20 0 -21 6 -3 46 -7 61 -18 65 -7 2 -16 15 -21 28 -5 13 -14 24 -20 24 -6 0
-4 -12 5 -30 10 -20 12 -30 4 -30 -6 0 -9 -9 -6 -19 2 -10 1 -25 -4 -32 -6
-10 -9 -8 -9 7 0 12 -7 24 -15 28 -10 3 -15 -1 -15 -13 0 -17 -38 -37 -49 -25
-3 2 -5 22 -5 44 -1 45 -16 52 -40 19 -18 -26 -50 -21 -54 9 -3 17 -8 21 -22
17 -19 -6 -33 16 -24 39 3 7 -2 16 -10 19 -10 4 -13 1 -10 -8 6 -15 -25 -35
-53 -35 -17 1 -17 1 0 14 27 21 20 33 -26 49 -41 14 -44 13 -60 -6 -9 -11 -20
-17 -24 -13 -4 4 -3 10 3 14 11 7 34 45 34 56 0 2 -14 4 -31 4 -24 -1 -34 -7
-43 -27 -7 -16 -19 -26 -33 -27 -12 0 -20 3 -17 8 3 4 12 8 20 8 8 0 14 9 14
19 0 11 6 22 13 25 6 4 -4 4 -24 2 -20 -2 -42 1 -49 7 -9 9 -11 9 -7 1 8 -13
-20 -27 -34 -18 -6 3 -3 16 6 31 16 24 16 24 -7 21 -19 -2 -23 1 -23 26 -1 20
-7 31 -22 37 -29 10 -35 43 -12 68 22 23 24 32 7 26 -14 -6 -16 49 -3 97 5 19
2 31 -12 45 -11 11 -26 29 -35 41 -15 22 -16 22 -47 5 -29 -17 -42 -43 -21
-43 18 0 10 -18 -10 -23 -14 -3 -20 -14 -20 -31 0 -14 4 -26 8 -26 5 0 8 -10
6 -23 -1 -12 -3 -28 -3 -36 -1 -11 -6 -9 -22 5 -12 10 -23 18 -25 17 -2 -2 -7
-3 -11 -3 -5 0 -1 5 7 10 11 7 12 10 2 10 -9 0 -12 9 -8 27 3 16 8 64 11 108
4 44 13 118 21 165 8 47 17 100 20 118 3 18 8 30 13 28 8 -6 7 -129 -2 -143
-8 -12 3 -53 13 -53 5 0 11 6 13 13 4 9 8 9 14 0 4 -6 20 -14 35 -18 17 -4 34
-19 42 -37 14 -26 14 -29 1 -24 -9 3 -15 0 -15 -9 0 -8 6 -15 14 -15 8 0 23
-3 33 -6 15 -5 15 -4 3 5 -9 6 -10 11 -3 11 6 0 19 -8 29 -17 11 -11 19 -14
21 -7 4 12 50 7 59 -7 8 -14 24 -10 24 6 0 8 9 15 19 15 11 0 35 14 53 30 28
26 31 32 18 41 -11 7 -7 8 15 3 17 -4 32 -10 35 -13 3 -3 17 -7 32 -8 l28 -2
-22 29 c-11 16 -35 34 -52 40 -70 26 -77 30 -70 42 5 8 -1 9 -20 4 -19 -5 -28
-2 -32 9 -4 8 -13 15 -21 15 -22 0 -78 51 -75 68 2 8 -1 11 -7 7 -6 -3 -11 -1
-11 5 0 6 -4 8 -10 5 -5 -3 -15 -3 -20 0 -6 4 4 17 22 29 26 18 35 20 41 9 4
-7 20 -13 35 -13 15 0 38 -6 52 -13 46 -24 135 -56 161 -60 15 -1 33 -7 40
-13 8 -6 32 -19 54 -29 22 -10 44 -20 49 -23 5 -3 6 1 1 7 -5 9 0 8 16 -2 13
-8 41 -20 62 -27 29 -9 37 -17 37 -35 0 -32 13 -38 38 -17 17 15 20 28 17 72
-1 30 -8 56 -14 58 -6 2 -11 13 -11 24 0 17 -4 19 -25 14 -23 -6 -25 -4 -19
19 5 22 3 25 -20 25 -14 0 -26 3 -26 8 0 4 -18 26 -40 50 -22 24 -40 48 -40
53 0 6 -15 28 -33 49 -18 22 -40 52 -48 67 -7 15 -26 39 -40 53 -14 14 -33 41
-42 61 -11 23 -30 43 -52 53 -35 17 -95 92 -95 120 0 9 8 16 20 16 22 0 27 15
9 26 -8 4 -7 9 2 15 10 6 8 9 -7 9 -12 0 -27 -7 -34 -15 -7 -8 -18 -15 -26
-15 -7 0 -17 -8 -23 -17 -46 -84 26 183 85 314 13 28 24 55 24 60 0 4 11 28
24 53 26 50 40 100 29 100 -5 0 -22 -9 -39 -19z m-74 -571 c0 -9 -16 -22 -37
-29 -56 -20 -103 -59 -120 -100 -39 -99 -56 -108 -35 -18 17 73 34 117 45 117
5 0 5 4 2 10 -3 5 7 15 22 21 15 7 41 17 57 24 33 15 66 2 66 -25z m90 -260
c0 -5 -5 -10 -11 -10 -5 0 -7 5 -4 10 3 6 8 10 11 10 2 0 4 -4 4 -10z m-276
-69 c26 -17 31 -26 30 -54 -2 -44 -13 -77 -25 -77 -16 0 -59 31 -69 50 -6 11
-4 26 6 44 8 16 14 35 14 42 0 19 7 18 44 -5z m361 -11 c3 -5 -1 -10 -9 -10
-8 0 -18 5 -21 10 -3 6 1 10 9 10 8 0 18 -4 21 -10z m-335 -562 c0 -13 -32 -6
-37 9 -3 7 3 9 16 6 12 -3 21 -10 21 -15z m311 -375 c-10 -17 -10 -16 -11 3 0
23 13 41 18 25 2 -6 -1 -18 -7 -28z m39 -77 c0 -3 -4 -8 -10 -11 -5 -3 -10 -1
-10 4 0 6 5 11 10 11 6 0 10 -2 10 -4z m767 -42 c-3 -3 -12 -4 -19 -1 -8 3 -5
6 6 6 11 1 17 -2 13 -5z m-23 -27 c-2 -7 -14 -13 -25 -14 -17 -2 -18 1 -9 13
15 17 41 19 34 1z m-110 -32 c-4 -8 -13 -15 -21 -15 -13 0 -13 3 -3 15 7 8 16
15 21 15 5 0 6 -7 3 -15z m-186 -19 c-7 -8 -15 -12 -17 -11 -5 6 10 25 20 25
5 0 4 -6 -3 -14z m232 -60 c0 -3 -4 -8 -10 -11 -5 -3 -10 -1 -10 4 0 6 5 11
10 11 6 0 10 -2 10 -4z m-70 -61 c0 -8 -9 -15 -20 -15 -17 0 -19 2 -8 15 17
19 28 19 28 0z"/>
<path d="M2445 2420 c-3 -5 1 -10 9 -10 9 0 16 5 16 10 0 6 -4 10 -9 10 -6 0
-13 -4 -16 -10z"/>
<path d="M75 2390 c-11 -5 -32 -9 -47 -9 -26 -1 -28 -4 -28 -41 0 -22 2 -40 5
-40 10 0 125 84 125 91 0 11 -28 10 -55 -1z"/>
<path d="M2450 2390 c0 -5 5 -10 11 -10 5 0 7 5 4 10 -3 6 -8 10 -11 10 -2 0
-4 -4 -4 -10z"/>
<path d="M1930 2224 c0 -8 4 -13 9 -9 5 3 12 1 16 -5 4 -6 11 -8 16 -4 13 8
-8 34 -27 34 -8 0 -14 -7 -14 -16z"/>
<path d="M1985 2190 c3 -5 13 -10 21 -10 8 0 12 5 9 10 -3 6 -13 10 -21 10 -8
0 -12 -4 -9 -10z"/>
<path d="M729 2148 c-4 -42 17 -93 55 -131 17 -18 17 -21 3 -29 -9 -4 -14 -17
-12 -28 3 -14 -2 -20 -16 -20 -10 0 -19 -5 -19 -11 0 -8 -4 -8 -13 -1 -10 8
-20 5 -42 -13 -26 -23 -27 -25 -7 -25 12 0 22 5 22 12 0 6 6 3 14 -7 16 -22
54 -29 72 -14 12 9 12 14 1 23 -7 6 -10 10 -8 9 2 -1 12 2 21 7 14 7 19 5 23
-10 3 -10 2 -21 -1 -25 -11 -10 -11 -38 -1 -57 7 -13 19 -18 37 -16 28 3 28 3
31 -55 1 -13 6 -17 20 -12 27 8 71 -14 64 -33 -5 -12 -1 -14 20 -8 22 5 27 3
27 -13 0 -10 -11 -26 -25 -35 -31 -21 -33 -40 -2 -30 12 3 24 11 26 16 1 5 9
14 16 21 13 12 9 47 -7 47 -5 0 -8 6 -6 13 4 17 -33 57 -52 57 -9 0 -22 -6
-29 -12 -10 -11 -12 -8 -9 12 2 14 -2 25 -9 26 -25 3 -25 4 -13 20 11 12 11
15 1 12 -8 -2 -15 8 -17 22 -3 14 -9 26 -14 28 -5 2 -5 13 1 28 17 45 11 63
-26 81 -25 12 -35 23 -35 39 0 19 -72 124 -85 124 -3 0 -6 -6 -6 -12z"/>
<path d="M874 2049 c-8 -13 49 -65 68 -61 8 1 34 -16 59 -38 38 -35 42 -42 28
-52 -12 -9 -14 -16 -5 -34 16 -34 62 -56 119 -58 57 -1 75 18 26 28 -40 8 -69
33 -69 58 0 61 -74 132 -157 152 -38 8 -65 10 -69 5z"/>
<path d="M726 1836 c3 -9 11 -16 16 -16 13 0 5 23 -10 28 -7 2 -10 -2 -6 -12z"/>
<path d="M1110 1495 c0 -8 -5 -24 -12 -35 -7 -10 -9 -23 -5 -27 5 -4 12 -1 17
7 14 23 23 4 10 -20 -13 -24 -5 -38 26 -44 10 -3 26 -7 35 -11 9 -3 22 1 30
11 13 16 11 17 -18 11 -32 -6 -45 5 -23 18 7 4 3 13 -9 24 -14 13 -17 21 -10
28 8 8 5 17 -10 32 -25 25 -31 26 -31 6z"/>
<path d="M3612 1431 c-9 -6 -9 -18 3 -52 23 -62 26 -111 10 -129 -11 -13 -12
-23 -4 -51 10 -30 8 -43 -10 -83 -18 -42 -19 -47 -4 -44 21 4 68 71 84 118 6
19 20 55 31 79 23 51 26 110 7 122 -8 4 -24 16 -37 25 -25 19 -62 26 -80 15z"/>
<path d="M1191 1330 c-8 -5 -11 -16 -6 -30 4 -12 10 -18 14 -13 3 6 14 9 24 7
14 -2 15 1 8 10 -6 7 -8 15 -5 18 9 9 -22 17 -35 8z"/>
<path d="M1207 1273 c-4 -3 -7 -12 -7 -19 0 -10 7 -10 30 -1 26 10 28 13 13
19 -24 9 -28 9 -36 1z"/>
<path d="M816 1238 c7 -11 34 -10 34 1 0 6 -9 9 -19 8 -11 0 -17 -5 -15 -9z"/>
<path d="M940 1059 c0 -5 5 -7 10 -4 6 3 10 8 10 11 0 2 -4 4 -10 4 -5 0 -10
-5 -10 -11z"/>
<path d="M3030 1020 c0 -12 43 -30 72 -30 20 0 21 1 3 20 -19 21 -75 28 -75
10z"/>
<path d="M2570 970 c-8 -5 -10 -10 -5 -10 6 0 17 5 25 10 8 5 11 10 5 10 -5 0
-17 -5 -25 -10z"/>
<path d="M3495 950 c-3 -5 -1 -10 4 -10 6 0 11 5 11 10 0 6 -2 10 -4 10 -3 0
-8 -4 -11 -10z"/>
<path d="M2561 898 c-30 -32 -26 -42 9 -21 31 18 37 28 21 38 -6 3 -19 -5 -30
-17z"/>
<path d="M477 832 c-3 -4 1 -13 9 -19 7 -7 15 -9 17 -5 3 4 -1 13 -9 19 -7 7
-15 9 -17 5z"/>
<path d="M2071 802 c-8 -15 -7 -21 3 -25 17 -7 27 15 16 33 -6 10 -11 8 -19
-8z"/>
<path d="M2415 785 c-25 -12 -26 -14 -5 -9 14 4 29 10 35 15 12 12 5 11 -30
-6z"/>
<path d="M1027 622 c-19 -20 -23 -67 -7 -77 6 -3 10 1 10 10 0 11 5 15 15 11
10 -4 15 1 15 14 0 11 -5 20 -11 20 -6 0 -8 9 -4 20 8 25 3 25 -18 2z"/>
<path d="M2515 611 c-3 -5 -1 -12 4 -15 5 -3 11 1 15 9 6 16 -9 21 -19 6z"/>
<path d="M910 566 c0 -14 29 -31 38 -21 6 6 -18 35 -29 35 -5 0 -9 -6 -9 -14z"/>
<path d="M2362 540 c-15 -24 -8 -40 17 -40 22 0 55 35 46 49 -11 18 -49 12
-63 -9z"/>
<path d="M1780 534 c0 -8 5 -12 10 -9 6 3 10 10 10 16 0 5 -4 9 -10 9 -5 0
-10 -7 -10 -16z"/>
<path d="M1853 543 c-7 -3 -13 -12 -13 -21 0 -15 2 -15 17 1 18 18 16 27 -4
20z"/>
<path d="M2060 535 c-10 -12 -10 -15 3 -15 8 0 17 7 21 15 3 8 2 15 -3 15 -5
0 -14 -7 -21 -15z"/>
<path d="M1665 490 c-3 -5 -2 -10 4 -10 5 0 13 5 16 10 3 6 2 10 -4 10 -5 0
-13 -4 -16 -10z"/>
<path d="M1190 471 c0 -5 7 -11 15 -15 8 -3 15 -1 15 3 0 5 -7 11 -15 15 -8 3
-15 1 -15 -3z"/>
<path d="M1675 460 c-3 -5 -1 -10 4 -10 6 0 11 5 11 10 0 6 -2 10 -4 10 -3 0
-8 -4 -11 -10z"/>
<path d="M1350 436 c0 -9 5 -16 10 -16 6 0 10 4 10 9 0 6 -4 13 -10 16 -5 3
-10 -1 -10 -9z"/>
<path d="M2087 393 c-12 -11 -8 -23 7 -23 8 0 16 7 20 15 5 15 -14 21 -27 8z"/>
<path d="M1808 373 c-16 -2 -28 -10 -28 -18 0 -11 6 -10 33 2 36 18 45 24 31
22 -5 -1 -21 -4 -36 -6z"/>
<path d="M1687 343 c-12 -12 -7 -22 8 -17 8 4 15 10 15 15 0 11 -14 12 -23 2z"/>
<path d="M1567 292 c-25 -27 -21 -36 5 -12 12 11 19 22 16 25 -2 3 -12 -3 -21
-13z"/>
<path d="M1647 276 c-10 -8 -14 -17 -8 -20 11 -7 61 13 61 26 0 13 -33 9 -53
-6z"/>
<path d="M2080 159 c0 -5 5 -7 10 -4 6 3 10 8 10 11 0 2 -4 4 -10 4 -5 0 -10
-5 -10 -11z"/>
</g>
</svg>
