<?xml version="1.0" standalone="no"?>
<!DOCTYPE svg PUBLIC "-//W3C//DTD SVG 20010904//EN"
 "http://www.w3.org/TR/2001/REC-SVG-20010904/DTD/svg10.dtd">
<svg version="1.0" xmlns="http://www.w3.org/2000/svg"
 width="846.000000pt" height="846.000000pt" viewBox="0 0 846.000000 846.000000"
 preserveAspectRatio="xMidYMid meet">
<metadata>
Created by potrace 1.11, written by Peter Selinger 2001-2013
</metadata>
<g transform="translate(0.000000,846.000000) scale(0.100000,-0.100000)"
fill="#000000" stroke="none">
<path d="M0 8309 c0 -145 1 -149 21 -149 14 0 19 -5 16 -14 -4 -10 3 -14 31
-13 20 1 37 -4 40 -11 2 -7 10 -12 17 -12 7 0 15 -7 19 -15 5 -13 9 -13 25 -3
17 10 24 9 45 -11 13 -13 29 -21 34 -17 5 3 26 -4 47 -15 27 -15 41 -17 48
-10 16 16 25 13 23 -6 0 -10 5 -17 12 -15 6 1 12 -2 12 -6 0 -5 29 -15 65 -22
36 -7 65 -18 65 -22 0 -5 9 -6 20 -3 13 4 22 1 26 -9 4 -10 18 -16 35 -16 17
0 32 -6 35 -15 4 -8 13 -15 22 -15 20 0 122 -49 144 -69 33 -31 47 -41 57 -41
5 0 11 -7 15 -15 3 -8 13 -15 21 -15 21 0 85 -51 85 -67 0 -7 8 -13 18 -13 10
0 25 -11 32 -25 7 -14 17 -25 21 -25 7 0 73 -91 90 -123 12 -23 37 -83 54
-127 15 -38 101 -344 124 -435 4 -16 12 -30 19 -29 7 1 25 2 41 3 l29 1 -20
68 c-34 117 -69 234 -104 344 -33 105 -41 138 -27 124 10 -10 50 -119 63 -176
5 -19 20 -73 35 -120 15 -47 34 -114 44 -150 15 -59 19 -65 44 -65 14 -1 29
-4 33 -8 4 -4 17 -8 28 -8 12 -1 7 -5 -14 -9 -90 -21 -126 -32 -134 -41 -6 -5
-19 -9 -30 -9 -27 0 -117 -45 -133 -66 -7 -9 -19 -14 -27 -11 -21 8 -45 -18
-39 -41 2 -11 -3 -26 -12 -36 -9 -9 -12 -16 -6 -16 5 0 8 -11 5 -25 -2 -14 0
-25 6 -25 5 0 10 7 10 15 0 8 8 15 17 15 13 0 14 3 5 12 -19 19 -14 38 9 38
16 0 20 -5 16 -20 -3 -11 -2 -20 2 -20 4 0 7 -9 8 -20 2 -20 -2 -22 -42 -24
-14 -1 -21 -9 -23 -28 -5 -40 -28 -55 -44 -29 -20 32 -29 25 -22 -19 6 -36 4
-40 -21 -50 -22 -8 -30 -7 -39 5 -6 8 -16 11 -22 7 -14 -9 -29 -66 -14 -57 5
3 10 -1 10 -10 0 -12 -4 -14 -19 -5 -41 21 -77 3 -70 -36 1 -5 1 -18 0 -29 -2
-19 -3 -19 -22 4 -11 13 -22 21 -25 18 -14 -13 9 -104 33 -132 14 -16 22 -25
19 -18 -14 26 14 21 33 -6 23 -32 28 -52 9 -33 -23 23 -27 12 -8 -23 10 -19
15 -37 10 -40 -10 -6 -81 61 -78 73 4 16 -13 48 -34 61 -13 8 -33 21 -45 29
-22 14 -22 13 -21 -22 1 -38 -20 -73 -29 -48 -3 7 -14 17 -25 23 -18 10 -20 9
-16 -9 4 -13 -2 -27 -17 -40 -21 -18 -24 -19 -39 -4 -9 10 -16 12 -16 5 0 -7
4 -14 9 -17 5 -3 7 -16 4 -29 -3 -16 -2 -18 5 -8 7 10 11 10 17 1 9 -15 -33
-59 -43 -45 -4 6 -15 16 -24 24 -16 12 -17 10 -16 -24 1 -20 7 -39 15 -42 18
-7 16 -23 -3 -23 -8 0 -22 -7 -31 -15 -11 -12 -19 -13 -28 -5 -11 9 -12 7 -8
-9 3 -12 9 -18 14 -15 18 11 8 -34 -12 -61 -16 -20 -28 -26 -46 -22 -18 3 -23
1 -19 -10 3 -7 -1 -16 -9 -19 -10 -4 -12 -15 -8 -35 4 -22 2 -29 -10 -29 -8 0
-18 6 -20 13 -3 6 -6 -7 -6 -30 -1 -31 -6 -43 -20 -48 -13 -4 -17 -12 -13 -30
2 -14 10 -25 18 -25 17 0 24 -13 15 -28 -6 -10 -14 -9 -36 2 -31 16 -46 13
-27 -6 13 -13 16 -58 5 -58 -5 0 -14 -4 -21 -9 -11 -7 -11 -12 -1 -29 10 -16
10 -26 -4 -54 -9 -19 -14 -44 -10 -56 3 -12 0 -29 -7 -37 -7 -8 -8 -15 -3 -15
6 0 11 -32 12 -71 2 -61 -1 -71 -14 -66 -22 9 -45 -3 -45 -23 0 -22 16 -35 25
-20 8 14 25 13 25 -2 0 -21 -35 -87 -46 -88 -6 0 -21 -13 -34 -30 -28 -36 -34
-37 -48 -7 -8 16 -11 17 -11 6 -1 -20 16 -34 52 -43 25 -6 39 -26 17 -26 -5 0
-10 5 -10 11 0 5 -5 7 -12 3 -8 -5 -6 -11 5 -19 10 -7 17 -17 17 -24 0 -6 7
-11 15 -11 8 0 15 -5 15 -10 0 -6 11 -15 24 -21 17 -8 23 -18 21 -38 -1 -14 1
-35 5 -46 7 -19 8 -19 15 -2 6 14 10 15 21 6 8 -6 14 -18 14 -26 0 -8 4 -12 9
-9 5 4 17 3 26 0 14 -6 14 -8 0 -24 -14 -16 -13 -18 27 -28 45 -11 173 -22
293 -23 39 -1 97 -8 130 -16 32 -8 72 -12 87 -9 20 4 28 2 28 -9 0 -8 8 -31
17 -50 15 -30 18 -33 24 -18 6 14 8 12 8 -9 1 -15 5 -30 11 -33 5 -3 7 -20 3
-37 -5 -26 -3 -30 10 -25 11 4 17 -1 19 -16 2 -12 9 -21 16 -20 6 2 12 -6 12
-17 0 -11 5 -20 12 -20 6 0 9 -3 6 -6 -3 -3 15 -25 41 -49 26 -25 56 -60 67
-80 10 -19 21 -35 25 -35 10 0 49 -37 49 -46 0 -5 22 -25 49 -45 36 -26 47
-39 40 -50 -16 -25 -11 -41 12 -34 12 4 27 1 37 -8 41 -35 60 -25 67 33 4 37
18 50 53 50 32 0 34 -1 17 -13 -10 -8 -15 -19 -12 -24 4 -6 0 -24 -8 -39 -10
-20 -11 -32 -3 -41 8 -10 6 -13 -11 -13 -17 0 -21 -6 -21 -30 0 -36 -21 -40
-70 -12 -31 17 -32 17 -47 -5 -9 -14 -26 -23 -42 -23 -14 0 -32 -4 -40 -9 -22
-14 87 -26 231 -25 70 0 133 6 140 11 7 6 30 16 52 23 45 14 95 47 139 90 17
16 34 30 37 30 4 0 12 11 18 25 6 14 20 25 29 25 10 0 34 23 53 50 19 27 48
59 64 71 27 20 30 21 41 5 7 -9 17 -16 22 -16 15 0 45 -49 38 -60 -3 -6 -2
-10 3 -10 6 0 8 -24 5 -59 -5 -49 -2 -66 21 -111 15 -29 24 -60 21 -68 -3 -7
5 -22 17 -33 13 -10 19 -18 15 -19 -18 0 28 -59 51 -65 19 -5 22 -9 13 -18 -6
-6 -11 -21 -11 -33 0 -12 -10 -28 -21 -36 -20 -13 -21 -19 -15 -72 7 -49 10
-57 26 -53 12 3 20 -2 23 -14 4 -15 0 -19 -19 -19 -13 0 -24 -5 -24 -11 0 -9
-23 -10 -80 -5 -56 5 -87 3 -103 -6 -12 -7 -25 -11 -29 -10 -5 1 -8 -9 -8 -23
0 -14 -4 -25 -9 -25 -5 0 -15 -15 -21 -32 -10 -25 -14 -28 -17 -16 -5 21 -33
24 -33 4 0 -9 -11 -13 -32 -12 -27 1 -34 -3 -36 -21 -3 -18 2 -23 18 -23 12 0
19 -3 17 -7 -3 -5 -1 -19 4 -32 7 -17 12 -21 22 -13 8 7 26 8 52 2 21 -5 46
-5 54 -1 9 4 44 5 79 3 53 -3 62 -7 62 -23 0 -14 -7 -19 -26 -19 -36 0 -90
-45 -98 -80 -3 -17 -12 -30 -20 -30 -7 0 -16 -11 -18 -25 -3 -14 -1 -25 3 -25
5 0 9 7 9 15 0 19 7 19 26 0 14 -13 13 -15 -3 -15 -16 0 -16 -1 2 -13 31 -21
66 -27 71 -13 4 10 30 13 97 12 84 -2 93 -4 103 -24 11 -22 26 -20 19 1 -12
34 141 71 187 46 15 -8 20 -5 28 16 9 25 12 26 88 29 11 1 17 -7 18 -24 1 -14
3 -29 4 -35 4 -18 0 -35 -7 -33 -5 0 -25 -6 -45 -15 -47 -21 -45 -21 -52 6 -5
21 -7 20 -24 -13 -15 -27 -29 -37 -60 -45 -22 -6 -44 -13 -48 -18 -4 -4 -26
-7 -49 -7 -22 0 -45 -4 -51 -9 -15 -14 -162 -43 -183 -36 -11 3 -34 -1 -50 -9
-17 -9 -41 -16 -54 -16 -19 0 -24 -5 -24 -25 0 -14 3 -25 8 -25 5 0 9 -7 9
-15 0 -12 18 -15 99 -15 56 0 103 -4 106 -10 3 -5 15 -10 26 -10 11 0 39 -11
63 -24 31 -17 47 -21 59 -14 10 5 21 7 25 4 4 -2 41 6 82 20 83 27 90 28 90
14 0 -9 -80 -50 -98 -50 -16 0 -64 -28 -73 -42 -12 -18 -11 -28 1 -28 6 0 10
7 10 15 0 20 16 19 24 -2 7 -18 -9 -33 -35 -33 -9 0 -21 -11 -27 -25 -6 -14
-16 -25 -22 -25 -14 0 -130 -91 -130 -102 0 -5 11 -13 25 -18 36 -14 68 -49
61 -67 -11 -29 23 -53 75 -53 26 0 51 -4 54 -10 3 -5 17 -10 31 -10 21 0 23
-3 15 -19 -9 -16 -7 -19 14 -17 28 1 31 6 13 24 -7 7 -8 12 -2 12 11 0 34 -42
34 -62 0 -6 -9 -3 -20 7 -20 18 -21 18 -38 -6 -18 -26 -24 -66 -11 -75 5 -3 9
-12 9 -21 0 -9 8 -22 17 -30 16 -13 16 -14 -8 -9 -26 6 -27 5 -18 -32 4 -20 6
-52 3 -70 -4 -21 0 -37 10 -48 27 -27 11 -94 -23 -94 -15 0 -14 -20 3 -39 7
-9 16 -29 20 -45 6 -25 5 -28 -14 -23 -13 3 -24 -1 -30 -14 -6 -10 -19 -19
-29 -19 -11 0 -21 -7 -25 -15 -9 -24 -22 -18 -46 23 -22 36 -23 36 -33 15 -5
-13 -16 -23 -24 -23 -7 0 -13 -6 -13 -12 0 -16 15 -40 24 -39 3 1 7 1 9 0 26
-8 53 -10 104 -9 52 0 65 -3 82 -22 12 -12 21 -26 21 -31 0 -14 -20 -47 -41
-68 -31 -31 -24 -42 24 -35 23 4 61 7 83 7 27 -1 50 6 68 20 15 12 29 19 32
16 10 -10 -8 -77 -27 -98 -31 -36 -19 -57 12 -21 47 50 90 82 113 82 15 0 26
6 26 14 0 7 13 19 30 26 16 7 30 16 30 21 0 5 8 9 18 9 22 0 53 -53 41 -71 -5
-8 -11 -40 -15 -72 -4 -31 -10 -57 -14 -57 -7 0 -23 -66 -24 -100 -1 -8 -4
-17 -8 -21 -4 -3 -10 -21 -12 -40 -2 -18 -8 -33 -13 -32 -5 1 -15 -18 -22 -43
-7 -24 -17 -42 -21 -39 -5 3 -14 -12 -20 -32 -16 -54 -32 -83 -41 -77 -4 2
-11 -11 -15 -31 -3 -19 -10 -32 -15 -29 -5 3 -9 -4 -9 -15 0 -11 -4 -23 -10
-26 -5 -3 -17 -23 -27 -43 -9 -20 -23 -43 -30 -50 -7 -7 -13 -18 -13 -24 0
-17 28 11 36 35 4 12 17 36 30 53 13 17 24 35 24 39 0 4 11 22 23 39 13 17 43
65 67 106 23 41 51 89 61 105 43 72 125 220 183 332 6 13 14 23 19 23 4 0 7 6
7 14 0 7 7 19 15 26 12 10 15 10 15 -3 0 -8 -7 -20 -15 -27 -8 -7 -15 -23 -15
-36 0 -13 -9 -38 -20 -56 -11 -18 -20 -39 -20 -46 0 -7 -7 -20 -15 -28 -8 -9
-15 -25 -15 -37 0 -12 -7 -31 -15 -41 -8 -11 -15 -30 -15 -43 0 -13 -4 -23
-10 -23 -5 0 -10 -11 -10 -25 0 -13 -6 -28 -13 -32 -7 -4 -30 -43 -51 -85 -21
-43 -41 -80 -46 -83 -5 -3 -11 -19 -15 -35 -4 -18 -11 -27 -18 -23 -6 4 -8 0
-4 -10 3 -9 0 -18 -9 -21 -8 -3 -14 -15 -14 -26 0 -11 -5 -20 -11 -20 -16 0
-38 -31 -39 -52 0 -10 -7 -18 -15 -18 -8 0 -15 -6 -15 -14 0 -7 -8 -24 -19
-37 -10 -13 -22 -35 -26 -49 -4 -14 -20 -43 -34 -65 -38 -56 -48 -74 -71 -125
-11 -24 -24 -47 -28 -50 -5 -3 -23 -34 -41 -70 -18 -36 -38 -72 -45 -80 -6 -8
-22 -35 -35 -60 -13 -25 -30 -52 -37 -61 -8 -8 -14 -21 -14 -28 0 -7 -5 -9
-11 -5 -8 5 -10 -1 -7 -19 3 -15 1 -24 -3 -21 -5 3 -14 -5 -19 -18 -5 -13 -14
-30 -19 -38 -5 -8 -17 -32 -26 -52 -9 -21 -20 -38 -25 -38 -5 0 -7 -7 -4 -15
4 -8 1 -15 -5 -15 -6 0 -11 -7 -11 -15 0 -9 -7 -18 -15 -21 -8 -4 -15 -17 -15
-29 0 -13 -5 -27 -10 -30 -27 -17 -2 -25 73 -25 l82 1 28 55 c15 30 25 59 22
64 -4 6 0 10 8 10 7 0 30 28 49 63 73 124 94 159 141 233 26 40 47 78 47 83 0
5 6 16 13 23 6 8 17 21 22 30 59 94 128 189 158 218 20 19 37 41 37 48 0 12 3
12 15 2 13 -10 15 -9 15 8 0 14 5 20 14 16 8 -3 19 1 26 8 12 14 175 260 181
274 2 5 34 54 70 109 107 164 214 355 374 670 58 116 144 266 190 335 46 69
89 137 96 153 13 29 29 36 29 12 0 -8 -5 -15 -11 -15 -5 0 -7 -4 -4 -10 3 -5
1 -10 -4 -10 -6 0 -11 -8 -11 -18 0 -10 -5 -23 -12 -30 -6 -6 -8 -15 -4 -19 4
-4 12 0 17 10 6 9 14 17 20 17 5 0 3 -10 -4 -22 -8 -13 -11 -33 -8 -45 5 -19
8 -20 24 -8 14 10 19 32 24 95 4 60 2 81 -6 76 -6 -4 -11 -1 -11 8 0 8 5 18
10 21 6 4 8 10 5 15 -10 16 16 22 28 6 9 -11 16 -13 27 -6 13 9 13 12 -2 21
-10 5 -18 15 -18 21 0 6 3 9 6 5 13 -12 30 18 27 47 -2 17 0 25 3 19 3 -7 10
-13 16 -13 15 0 38 27 38 44 0 9 5 16 10 16 6 0 10 5 10 11 0 5 -4 7 -10 4 -5
-3 -10 -1 -10 4 0 6 8 11 18 11 14 0 15 2 2 10 -11 7 -12 10 -2 10 22 0 42 27
36 47 -4 14 -1 13 15 -6 13 -14 27 -21 37 -17 11 4 18 -1 21 -14 7 -25 19 -25
35 0 7 11 21 20 32 20 17 0 18 -6 12 -70 -4 -39 -14 -86 -22 -105 -8 -19 -14
-45 -14 -59 0 -14 -4 -28 -10 -31 -6 -3 -10 -70 -10 -158 -1 -156 -5 -221 -15
-236 -3 -5 -5 -86 -6 -179 0 -173 8 -239 53 -412 21 -83 45 -214 54 -293 3
-29 8 -61 9 -72 2 -11 7 -45 10 -75 4 -30 11 -68 16 -85 8 -30 16 -66 26 -119
4 -21 8 -25 15 -15 7 10 8 8 3 -7 -3 -12 0 -34 6 -50 7 -16 14 -39 15 -51 2
-12 9 -34 17 -50 9 -16 18 -45 22 -66 4 -20 11 -37 15 -37 4 0 13 -26 20 -57
8 -32 20 -69 27 -83 7 -14 13 -31 13 -38 0 -8 6 -26 14 -40 7 -15 23 -61 35
-102 12 -41 26 -87 30 -101 4 -14 5 -45 1 -70 -7 -49 -9 -45 -29 58 -12 60
-66 183 -81 183 -5 0 -10 6 -10 14 0 8 -9 18 -20 21 -11 3 -20 13 -20 21 0 8
-9 14 -20 14 -11 0 -20 7 -20 15 0 11 -7 13 -29 9 -26 -6 -30 -3 -33 22 -2 15
-9 30 -17 32 -9 3 -12 0 -8 -10 3 -9 0 -21 -6 -27 -14 -14 -47 -15 -47 -1 0 6
4 10 9 10 20 0 31 138 12 150 -5 3 -15 18 -20 33 -8 21 -17 28 -34 27 -40 -4
-49 0 -43 15 4 10 -1 15 -14 15 -11 0 -20 -5 -20 -10 0 -7 -7 -7 -21 0 -32 18
-36 2 -6 -26 29 -26 33 -44 17 -73 -7 -14 -4 -23 15 -41 18 -17 23 -29 18 -51
-3 -19 0 -34 11 -44 24 -25 11 -35 -45 -35 -37 0 -49 -4 -49 -15 0 -8 -7 -15
-15 -15 -8 0 -15 -9 -15 -21 0 -16 -4 -19 -20 -14 -14 5 -20 2 -20 -9 0 -9 -4
-16 -10 -16 -5 0 -10 3 -10 8 0 15 -86 7 -104 -10 -10 -10 -25 -18 -35 -18
-10 0 -28 -11 -41 -25 -14 -15 -30 -23 -40 -20 -9 3 -26 -3 -37 -12 -12 -10
-30 -25 -40 -33 -10 -9 -33 -22 -50 -29 -18 -7 -33 -17 -33 -22 0 -4 -9 -11
-20 -14 -11 -4 -46 -31 -77 -61 l-57 -54 581 0 581 0 6 63 c3 34 10 114 15
177 5 63 11 122 12 130 3 9 -3 14 -14 14 -10 -1 -25 9 -34 22 -23 36 -9 86 42
148 31 38 40 56 30 59 -17 7 -58 -3 -67 -17 -5 -7 -13 -5 -24 6 -26 26 -19 83
17 139 33 52 49 122 30 133 -6 4 -11 0 -11 -11 0 -15 -8 -18 -44 -18 -163 1
-161 304 3 525 72 96 113 161 106 168 -3 4 -10 0 -15 -8 -12 -19 -13 -4 -1 18
11 20 -28 72 -53 72 -8 0 -18 5 -22 11 -3 6 -19 9 -35 5 l-29 -6 0 56 c0 41 8
71 31 119 17 35 37 69 45 76 8 6 14 17 14 23 0 15 61 80 83 89 9 3 17 11 17
16 0 5 10 13 22 17 21 6 21 7 3 20 -10 7 -22 11 -26 8 -5 -3 -9 4 -9 15 0 11
-5 23 -10 26 -8 5 -8 11 -1 19 6 7 8 16 4 19 -3 4 -2 7 3 7 5 0 29 18 54 40
25 22 48 40 53 40 4 0 7 10 7 23 0 17 2 19 9 8 8 -12 11 -9 17 14 5 21 3 31
-11 42 -13 9 -22 10 -29 3 -5 -5 -20 -10 -31 -10 -12 0 -30 -9 -40 -20 -10
-11 -23 -20 -30 -20 -18 0 -75 -29 -113 -57 -31 -24 -34 -24 -52 -8 -18 17
-18 18 6 40 36 34 104 89 122 99 28 16 62 60 68 88 4 15 15 36 25 47 11 11 19
24 19 29 0 5 26 23 58 39 31 17 59 38 61 48 2 13 -1 16 -13 12 -10 -4 -16 -1
-16 7 0 8 7 16 15 20 11 4 14 13 9 31 -4 17 -2 27 9 31 9 3 13 12 10 21 -3 8
0 19 8 24 12 8 12 11 -1 19 -13 8 -13 10 3 11 30 3 35 4 43 12 4 4 25 7 46 7
24 0 38 5 38 13 0 8 2 9 8 1 8 -13 82 -24 82 -12 0 11 56 38 79 38 12 0 26 -9
33 -20 7 -11 18 -20 25 -20 7 0 10 -7 7 -15 -4 -8 -12 -15 -19 -15 -7 0 -16
-8 -19 -17 -6 -15 -8 -15 -16 -3 -8 12 -10 10 -10 -7 0 -16 -8 -25 -25 -29
-14 -3 -25 -10 -25 -14 0 -16 -50 -60 -69 -60 -14 0 -23 -9 -27 -25 -3 -13
-21 -34 -39 -45 -33 -21 -52 -66 -34 -84 5 -6 9 -16 9 -23 0 -42 80 -83 94
-48 3 8 12 15 19 15 8 0 36 25 62 55 27 30 56 55 64 55 9 0 27 9 40 19 14 10
31 17 38 14 14 -6 33 35 26 55 -7 18 3 15 30 -11 13 -12 23 -30 21 -39 -3 -25
36 -24 43 1 3 12 17 23 35 26 37 9 40 6 32 -33 -5 -27 -13 -34 -45 -42 -22 -6
-45 -20 -52 -30 -6 -11 -17 -20 -24 -20 -7 0 -13 -7 -13 -15 0 -8 -7 -15 -15
-15 -8 0 -27 -18 -41 -40 -14 -22 -34 -42 -43 -45 -9 -2 -32 -25 -51 -50 -19
-24 -41 -44 -47 -45 -7 0 -13 -6 -13 -13 0 -7 -9 -18 -20 -25 -11 -7 -20 -19
-20 -27 0 -8 -12 -18 -26 -21 -16 -4 -21 -9 -14 -14 7 -4 2 -13 -17 -25 -39
-26 -62 -56 -63 -82 0 -13 -4 -23 -9 -23 -12 0 -51 -80 -51 -103 0 -10 -8 -21
-17 -24 -25 -10 -41 -27 -53 -59 -9 -23 -8 -31 10 -48 l20 -20 0 27 c0 16 -4
26 -10 22 -11 -7 -13 6 -4 29 3 9 13 16 21 16 11 0 14 -8 11 -31 -5 -33 9 -46
38 -35 13 5 14 9 4 21 -8 10 -9 15 -1 15 6 0 13 11 17 25 4 17 16 28 38 33 17
5 31 15 31 23 0 17 66 79 83 79 6 0 15 6 19 13 4 7 21 18 37 25 16 7 26 16 22
19 -3 4 13 18 36 31 24 14 46 30 50 36 4 6 20 11 35 11 19 0 31 7 39 24 16 32
32 41 76 41 20 0 40 5 43 10 13 21 143 72 151 59 7 -12 -26 -59 -41 -59 -8 0
-15 -12 -17 -27 -2 -18 -9 -28 -20 -28 -19 0 -48 -28 -68 -64 -7 -14 -18 -21
-29 -18 -12 3 -25 -7 -41 -29 -14 -22 -31 -34 -45 -34 -13 0 -25 -7 -29 -15
-3 -9 -18 -15 -36 -15 -20 0 -30 -5 -30 -15 0 -8 -9 -19 -20 -25 -11 -6 -20
-17 -20 -25 0 -8 -4 -15 -9 -15 -4 0 -19 -10 -33 -23 -14 -13 -40 -31 -59 -40
-39 -19 -69 -41 -69 -50 0 -15 -172 -192 -195 -200 -8 -4 -15 -11 -15 -17 0
-6 -14 -23 -30 -37 -17 -13 -28 -28 -25 -33 3 -4 -7 -15 -21 -25 -16 -10 -23
-22 -20 -31 3 -8 2 -12 -4 -9 -5 3 -12 -10 -16 -30 -3 -19 -10 -38 -15 -41 -5
-3 -9 -10 -9 -16 0 -14 71 -2 81 14 6 9 12 8 27 -5 23 -21 33 -22 26 -2 -4 8
-5 15 -3 16 121 17 217 44 230 63 4 5 14 6 22 3 9 -3 17 0 19 7 2 9 9 7 23 -7
17 -17 17 -19 3 -14 -12 4 -18 1 -18 -8 0 -28 -24 -65 -42 -65 -10 0 -21 -7
-24 -15 -4 -8 -12 -15 -20 -15 -7 0 -21 -14 -31 -30 -11 -20 -31 -35 -55 -42
-22 -6 -38 -17 -38 -26 0 -15 -57 -72 -72 -72 -4 0 -8 -8 -8 -17 0 -9 -8 -25
-17 -35 -10 -11 -18 -29 -18 -41 0 -15 -7 -23 -22 -25 -13 -2 -23 -10 -23 -18
0 -8 -7 -17 -15 -20 -8 -4 -15 -15 -15 -26 0 -16 5 -19 25 -16 19 4 25 1 25
-12 0 -24 54 -126 83 -156 23 -25 61 -32 72 -13 4 5 18 14 31 19 13 5 24 16
24 25 0 8 5 24 10 35 6 11 15 29 20 40 6 11 10 26 10 34 0 8 12 19 28 25 34
13 56 31 65 54 3 9 13 17 22 17 17 0 20 25 5 35 -8 5 -7 11 1 21 7 8 12 33 11
55 -1 25 4 46 16 57 20 22 44 61 71 117 24 50 27 135 4 135 -10 0 -13 6 -9 16
3 8 1 25 -5 36 -9 17 -8 24 5 33 9 7 16 18 16 24 0 20 43 58 74 65 27 7 67 36
49 36 -4 0 7 10 25 21 17 12 32 25 32 30 0 5 8 9 18 9 10 0 27 7 38 15 10 8
28 15 40 15 11 0 41 11 65 24 120 66 181 87 194 65 4 -6 2 -14 -4 -18 -6 -4
-9 -15 -5 -24 4 -12 1 -17 -9 -17 -20 0 -36 -54 -29 -98 5 -38 13 -41 27 -9 8
18 17 22 50 21 25 -1 43 3 48 12 4 8 18 14 30 14 12 0 33 9 47 20 30 24 40 25
40 5 0 -8 6 -12 14 -9 26 10 26 -13 1 -50 -14 -20 -25 -41 -25 -46 0 -6 -3
-10 -8 -10 -4 0 -15 -18 -25 -40 -9 -23 -22 -38 -27 -35 -6 3 -10 -3 -10 -13
0 -11 -7 -25 -15 -32 -8 -7 -13 -16 -10 -20 3 -4 -4 -18 -14 -31 -10 -13 -21
-36 -25 -51 -3 -16 -10 -28 -15 -28 -5 0 -7 -9 -4 -20 3 -11 10 -20 16 -20 6
0 8 -19 4 -51 -4 -35 -2 -63 8 -87 14 -31 14 -38 0 -58 -8 -13 -15 -30 -15
-39 0 -16 -16 -49 -37 -75 -11 -14 -9 -16 11 -15 14 0 28 3 32 8 16 16 43 7
41 -14 -1 -16 -7 -19 -24 -16 -17 3 -23 0 -23 -13 0 -13 -6 -17 -19 -13 -13 3
-26 -5 -42 -26 -13 -18 -29 -29 -36 -26 -8 2 -26 -9 -41 -26 -15 -16 -34 -31
-42 -32 -28 -4 -100 -87 -101 -115 0 -15 -3 -21 -6 -14 -7 18 -31 14 -43 -8
-8 -15 -7 -27 4 -48 15 -28 14 -29 -10 -24 -20 4 -24 0 -24 -19 -1 -20 -2 -21
-10 -7 -11 17 -50 14 -62 -6 -15 -25 -163 -4 -181 25 -8 12 -19 16 -38 12 -15
-3 -30 0 -33 6 -4 6 -18 11 -32 11 -15 0 -24 6 -24 16 0 13 -7 15 -32 10 -37
-7 -34 -5 -42 -33 -6 -17 -3 -23 8 -23 9 0 16 -4 16 -10 0 -5 9 -10 20 -10 11
0 20 -4 20 -10 0 -5 6 -10 14 -10 7 0 19 -6 25 -14 7 -8 21 -12 31 -9 11 3 20
1 20 -5 0 -6 14 -13 30 -17 17 -4 30 -11 30 -17 0 -6 17 -28 38 -48 20 -21 48
-52 62 -69 13 -17 30 -31 38 -31 8 0 26 -9 42 -20 15 -11 30 -17 34 -13 3 3 6
1 6 -5 0 -7 7 -12 15 -12 19 0 57 -21 67 -37 5 -6 17 -9 28 -6 11 3 27 0 35
-7 8 -7 22 -10 30 -6 21 8 46 -4 38 -18 -4 -6 2 -4 12 4 14 11 19 12 22 3 3
-7 11 -13 19 -13 8 0 14 -4 14 -9 0 -5 20 -9 45 -9 24 1 52 -5 61 -13 9 -7 31
-12 49 -10 25 2 36 -3 44 -17 7 -14 26 -22 60 -27 28 -4 52 -13 55 -21 3 -8
17 -14 31 -14 16 0 25 -6 25 -16 0 -13 3 -14 14 -5 11 9 17 8 29 -4 9 -8 20
-15 26 -15 6 0 8 -7 4 -16 -5 -14 -2 -16 20 -10 19 4 27 3 27 -7 0 -8 8 -21
18 -30 17 -16 109 -17 1115 -17 l1097 0 0 1935 c0 1735 -1 1935 -15 1935 -9 0
-18 -7 -21 -15 -4 -8 -13 -15 -20 -15 -22 0 -64 -30 -64 -46 0 -7 -11 -16 -25
-20 -20 -5 -24 -11 -19 -28 5 -22 4 -22 -83 -18 -72 3 -91 7 -105 24 -12 13
-35 21 -73 25 -31 3 -58 10 -61 14 -3 5 -16 9 -29 9 -13 0 -27 5 -31 11 -3 6
-15 9 -25 6 -10 -3 -22 -1 -25 4 -3 5 -21 9 -40 9 -19 0 -34 4 -34 8 0 4 -20
14 -45 21 -24 7 -43 18 -42 25 1 6 -6 10 -15 8 -11 -2 -18 3 -18 13 0 17 -16
20 -25 5 -13 -21 -26 -9 -20 18 6 31 -15 59 -35 47 -5 -3 -10 -2 -10 4 0 13
-58 45 -84 45 -22 1 -35 26 -13 26 8 0 22 11 31 24 13 21 15 54 13 203 -2 173
-1 180 26 257 16 43 35 85 43 93 8 8 14 22 14 32 0 10 10 29 21 42 12 13 32
41 45 62 13 20 28 37 32 37 4 0 15 13 25 29 12 20 27 30 54 35 21 3 52 9 69
12 22 4 36 1 49 -13 10 -10 25 -18 33 -18 8 0 20 -9 26 -20 6 -11 18 -25 26
-32 9 -7 10 -13 4 -13 -6 0 -17 -21 -23 -47 -7 -27 -17 -56 -22 -65 -12 -23
-12 -48 1 -48 6 0 10 -27 10 -60 0 -33 -4 -60 -9 -60 -19 0 -50 -246 -35 -283
4 -11 17 -17 35 -17 29 0 38 -13 19 -25 -20 -12 -9 -36 20 -46 31 -11 38 -23
20 -34 -6 -3 -10 -14 -10 -23 1 -12 8 -8 29 16 15 17 37 32 48 32 11 0 31 9
44 21 13 11 19 18 14 15 -6 -2 -17 -1 -25 4 -10 6 -7 10 14 16 19 4 31 16 38
35 5 16 16 29 23 29 6 0 24 11 39 25 21 20 26 33 25 63 -2 21 1 45 6 52 5 8
10 29 10 45 0 27 4 30 35 33 19 2 39 7 45 11 11 8 35 7 83 -3 l32 -8 0 191 c0
105 -4 191 -8 191 -4 0 -13 -5 -18 -10 -12 -12 -47 -3 -39 10 2 4 -4 15 -15
25 -11 10 -20 14 -20 10 0 -5 -6 0 -14 11 -8 10 -18 19 -23 19 -4 0 -25 13
-46 29 -31 24 -37 34 -37 66 0 40 -16 55 -47 43 -14 -5 -15 -2 -8 18 5 13 8
61 7 107 -2 81 -2 84 28 108 16 14 30 32 30 40 0 8 7 17 15 20 9 4 13 13 10
23 -5 17 27 61 45 61 6 0 10 9 10 20 0 11 4 20 9 20 5 0 34 25 65 54 l56 55
-2 393 c-2 233 -7 385 -12 373 -4 -11 -13 -32 -20 -47 -8 -21 -18 -28 -38 -28
-24 0 -28 4 -28 29 0 15 -9 40 -20 54 -11 14 -20 31 -20 38 0 7 -7 20 -16 30
-12 13 -13 22 -5 38 8 14 8 22 1 26 -17 10 7 33 41 40 17 4 33 13 36 21 3 8
15 14 27 14 47 1 56 20 56 124 0 93 -1 96 -22 96 -19 0 -20 -2 -8 -10 12 -8
11 -10 -7 -10 -12 0 -26 6 -30 13 -9 16 -58 49 -64 44 -2 -2 -36 29 -75 70
-39 40 -68 76 -63 78 4 3 9 -1 12 -7 2 -7 7 -10 11 -7 3 3 -1 22 -9 42 -8 20
-15 39 -15 42 0 3 -3 4 -6 3 -14 -7 -20 33 -15 95 6 65 5 70 -18 89 -20 15
-23 21 -11 28 12 7 12 11 -2 27 -8 10 -18 25 -22 33 -3 8 -4 4 -2 -9 3 -13 -4
-40 -16 -60 l-20 -36 6 60 c4 33 11 76 16 95 5 19 17 83 26 143 16 102 15 148
-2 191 -7 17 -4 18 32 12 42 -7 186 -49 247 -72 53 -20 57 -18 57 20 0 26 -7
39 -27 54 -29 21 -24 42 10 42 16 0 18 3 9 12 -7 7 -40 11 -79 11 -38 0 -58 2
-45 4 12 2 22 9 22 14 0 12 -27 11 -70 -1 -41 -12 -113 -3 -107 13 2 7 12 16
23 21 10 5 27 19 37 32 15 21 16 24 2 24 -8 0 -15 -4 -15 -10 0 -24 -18 -7
-24 23 -3 17 -15 39 -26 47 -11 9 -22 36 -28 68 -9 48 -7 56 12 77 11 12 35
27 52 33 43 14 159 0 212 -26 l42 -20 0 199 0 199 -1460 0 c-803 0 -1460 -2
-1460 -5 0 -2 21 -17 48 -32 26 -15 52 -31 57 -35 6 -5 53 -34 105 -64 52 -31
118 -71 145 -89 28 -18 85 -52 127 -76 43 -24 76 -48 74 -54 -1 -5 -12 -15
-23 -20 -12 -6 -27 -16 -34 -21 -8 -6 -28 -14 -45 -17 -18 -3 -44 -18 -59 -32
-16 -14 -39 -25 -52 -25 -13 0 -39 -11 -57 -25 -18 -14 -41 -25 -50 -25 -9 0
-45 -18 -78 -40 -34 -22 -69 -40 -78 -40 -9 0 -27 -11 -39 -24 -12 -13 -44
-32 -69 -42 -26 -9 -57 -28 -69 -41 -12 -12 -32 -23 -45 -23 -21 0 -98 -73
-98 -92 0 -5 -7 -8 -15 -8 -8 0 -15 5 -15 10 0 6 -10 10 -22 10 -27 0 -88 22
-88 31 0 4 -25 15 -55 24 -49 14 -60 23 -57 46 1 4 -7 5 -17 2 -11 -3 -27 4
-39 17 -13 14 -27 20 -40 16 -11 -4 -28 1 -43 12 -39 31 -106 62 -134 62 -14
0 -25 6 -25 13 0 14 -40 37 -65 37 -8 0 -15 4 -15 10 0 5 -16 12 -35 16 -19 3
-35 12 -35 19 0 6 -28 19 -62 28 -35 8 -55 16 -45 16 23 1 12 21 -12 21 -10 0
-30 9 -44 20 -14 11 -32 20 -41 20 -9 0 -19 6 -22 14 -3 8 -19 18 -35 21 -21
5 -29 13 -29 28 0 18 -2 19 -10 7 -7 -11 -12 -12 -18 -3 -4 6 -33 21 -64 33
-55 20 -76 35 -76 55 0 5 -6 11 -13 14 -8 2 -10 -2 -6 -13 5 -12 3 -16 -5 -13
-7 2 -12 12 -12 20 1 13 -4 15 -22 11 -17 -4 -26 -1 -30 10 -3 9 -12 16 -19
16 -7 0 -23 11 -36 25 -13 13 -34 25 -46 25 -20 0 -73 39 -73 54 0 13 57 -8
165 -61 61 -29 118 -58 127 -63 10 -6 24 -10 32 -10 8 0 16 -3 18 -7 4 -11
130 -73 146 -73 6 0 12 -4 12 -10 0 -5 5 -10 10 -10 6 0 75 -31 155 -70 80
-38 153 -70 162 -70 13 0 10 4 -9 14 -15 8 -40 21 -55 29 -15 8 -50 25 -78 38
-27 13 -54 29 -60 35 -5 7 -23 15 -40 19 -16 3 -39 15 -50 24 -11 10 -41 26
-67 36 -26 10 -53 24 -59 32 -10 11 -9 12 5 7 26 -10 18 10 -10 23 -22 10 -25
10 -20 -3 3 -9 1 -14 -5 -12 -6 2 -10 7 -9 12 3 15 -54 46 -74 40 -10 -3 -29
0 -43 7 -22 12 -23 14 -6 20 15 6 14 8 -12 19 -16 7 -52 23 -79 37 -39 19 -52
21 -65 11 -13 -10 -14 -10 -3 2 16 19 15 33 -3 27 -8 -4 -17 -2 -20 3 -4 6 2
10 11 10 16 0 15 2 -4 20 -22 21 -48 28 -37 10 3 -5 1 -10 -4 -10 -6 0 -11 5
-11 10 0 7 -612 10 -1817 10 -1206 -1 -1812 -4 -1801 -11 9 -5 52 -21 95 -35
43 -14 87 -29 98 -34 11 -5 58 -21 105 -36 47 -15 91 -32 98 -37 16 -13 15
-27 -3 -27 -9 0 -12 6 -9 15 4 8 1 15 -5 15 -6 0 -11 -5 -11 -11 0 -5 -4 -7
-10 -4 -5 3 -22 -1 -37 -10 -22 -12 -23 -14 -6 -10 14 4 32 0 45 -10 22 -17
22 -17 -22 -12 -25 2 -61 11 -80 20 -19 8 -45 18 -58 22 -12 3 -22 14 -22 23
0 11 -3 13 -8 5 -9 -15 -62 -5 -69 14 -3 8 -13 11 -24 8 -18 -6 -106 20 -174
50 -27 12 -51 21 -157 55 l-28 9 0 -150z m3747 125 c-3 -3 -12 -4 -19 -1 -8 3
-5 6 6 6 11 1 17 -2 13 -5z m-2671 -41 c16 -13 36 -22 46 -20 10 3 18 1 18 -4
0 -6 20 -19 45 -30 25 -11 45 -24 45 -30 0 -5 11 -7 25 -3 18 4 25 2 25 -9 0
-8 14 -25 31 -38 17 -13 40 -32 50 -41 11 -10 19 -15 19 -10 1 4 7 -4 15 -18
8 -14 14 -19 15 -12 0 6 7 12 15 12 14 0 19 -14 18 -47 -1 -7 4 -10 9 -7 20
13 104 -48 93 -66 -3 -4 9 -13 26 -20 19 -8 28 -18 25 -27 -3 -8 -2 -12 2 -9
4 2 14 -9 21 -25 8 -17 20 -29 32 -29 12 0 19 -7 19 -19 0 -14 10 -20 40 -25
25 -4 40 -12 40 -21 0 -8 11 -26 25 -41 19 -20 25 -23 25 -10 0 20 0 20 50 0
27 -11 42 -24 46 -40 6 -22 51 -64 69 -64 4 0 4 14 0 31 -5 24 -4 30 6 27 8
-3 14 -13 14 -24 0 -10 5 -19 10 -19 24 -2 54 -17 59 -32 5 -12 9 -13 21 -3
20 16 71 -4 78 -30 3 -13 11 -17 24 -14 27 7 60 -30 44 -50 -7 -8 -10 -20 -6
-26 10 -17 107 -1 122 19 12 15 14 15 24 -1 5 -10 17 -18 24 -18 8 0 15 -4 15
-10 0 -5 11 0 25 12 14 12 25 28 25 35 0 7 4 13 8 13 4 0 6 -32 4 -71 -3 -39
1 -98 8 -132 11 -58 79 -278 100 -322 5 -11 28 -77 51 -147 23 -71 47 -128 54
-128 12 0 125 -114 222 -226 29 -32 69 -78 90 -100 21 -23 64 -72 97 -108 32
-36 65 -66 72 -66 8 0 14 -6 14 -14 0 -7 20 -32 45 -54 24 -23 49 -51 56 -63
6 -12 49 -61 95 -108 137 -142 214 -226 214 -233 0 -5 7 -8 15 -8 8 0 15 -4
15 -9 0 -5 12 -22 28 -39 36 -39 132 -147 172 -194 36 -42 48 -41 125 12 24
17 48 30 54 30 5 0 17 9 25 21 8 12 18 19 23 16 4 -3 8 8 9 24 1 26 0 27 -12
11 -12 -16 -13 -16 -20 3 -7 20 -19 32 -110 114 -27 24 -51 53 -54 65 -4 14
-15 22 -33 24 -15 2 -32 12 -38 23 -6 11 -15 17 -22 12 -7 -4 -5 1 3 11 13 16
12 20 -5 32 -10 8 -27 14 -38 14 -12 0 -24 13 -34 39 -8 22 -24 42 -34 44 -11
3 -28 26 -40 52 -12 28 -26 45 -33 42 -17 -7 -28 2 -46 36 -8 16 -29 44 -47
64 -18 19 -33 38 -33 41 0 4 -10 18 -23 32 -13 14 -32 40 -42 58 -11 17 -24
32 -30 32 -5 0 -16 14 -24 31 -7 17 -24 34 -37 39 -14 6 -24 18 -24 29 0 11
-20 40 -45 65 -25 26 -45 53 -45 60 0 8 -13 23 -30 33 -16 9 -30 20 -31 23 -4
32 -10 45 -23 52 -20 11 -21 32 -1 24 10 -4 15 1 15 14 0 21 -16 27 -22 9 -2
-7 -10 -4 -18 7 -13 15 -13 17 0 12 8 -2 21 1 28 8 17 17 6 39 -59 117 -27 32
-49 63 -49 68 0 14 42 11 106 -10 32 -10 93 -29 134 -41 41 -12 116 -34 165
-50 148 -47 231 -70 254 -70 11 0 21 -3 21 -8 0 -4 30 -15 68 -25 37 -10 83
-25 102 -32 19 -8 103 -35 185 -60 83 -25 159 -50 170 -55 11 -4 98 -34 194
-65 139 -46 175 -54 182 -43 5 7 9 16 9 21 0 4 9 7 20 7 13 0 20 -7 20 -20 0
-11 -4 -20 -10 -20 -5 0 -10 -7 -10 -15 0 -8 5 -15 10 -15 13 0 5 -71 -11
-102 -33 -63 -36 -78 -19 -78 6 0 10 7 10 15 0 8 9 15 20 15 11 0 20 -4 20
-10 0 -5 -7 -10 -15 -10 -8 0 -15 -7 -15 -16 0 -8 4 -13 9 -9 5 3 13 0 17 -6
3 -6 1 -15 -7 -19 -10 -7 -10 -11 0 -24 8 -9 9 -16 4 -16 -6 0 -15 10 -21 23
-10 19 -11 16 -6 -21 6 -41 -13 -103 -35 -117 -5 -3 -7 -14 -4 -25 3 -12 -2
-29 -12 -40 -10 -11 -15 -23 -12 -27 4 -3 -1 -12 -11 -20 -16 -12 -16 -14 0
-26 13 -10 14 -17 6 -25 -8 -8 -8 -15 0 -24 7 -9 7 -19 2 -28 -5 -8 -7 -23 -4
-32 4 -13 1 -16 -9 -12 -7 2 -20 -2 -27 -10 -7 -9 -16 -14 -20 -11 -14 9 -40
-37 -40 -69 0 -16 -7 -37 -16 -47 -8 -9 -16 -36 -17 -60 -1 -32 -7 -45 -19
-47 -11 -2 -18 5 -20 20 -2 15 -9 22 -20 20 -18 -3 -23 11 -19 56 2 25 -8 28
-28 10 -11 -11 -12 -8 -7 15 6 26 5 27 -14 15 -20 -13 -27 -34 -12 -40 5 -1
12 -16 16 -31 5 -22 4 -28 -6 -25 -7 3 -14 14 -16 26 -2 12 -8 22 -14 22 -6 0
-8 12 -4 30 3 17 1 30 -4 30 -5 0 -13 -18 -16 -40 -4 -22 -12 -40 -18 -40 -6
0 -2 -7 9 -16 11 -8 21 -25 22 -37 3 -38 32 -96 53 -107 11 -6 18 -15 15 -20
-7 -12 -23 0 -74 56 -15 17 -60 11 -72 -8 -4 -6 -9 -2 -13 9 -5 16 -15 20 -56
19 -28 0 -50 -4 -50 -8 0 -5 -8 -8 -18 -8 -11 0 -27 -9 -37 -20 -16 -17 -16
-20 -2 -20 9 0 19 5 22 10 5 8 11 8 19 1 7 -6 22 -8 34 -4 29 7 28 -4 -2 -32
-13 -12 -31 -35 -40 -51 l-17 -29 4 38 c3 37 3 37 -33 34 -34 -2 -35 -4 -44
-55 -6 -29 -15 -52 -22 -52 -7 0 -15 -6 -18 -12 -4 -7 -4 1 -1 19 6 41 -6 48
-39 22 -30 -23 -34 -48 -8 -50 16 -1 16 -2 0 -6 -10 -2 -21 -15 -24 -29 -4
-13 -15 -31 -26 -38 -11 -8 -17 -19 -14 -25 4 -5 2 -12 -3 -15 -10 -7 -21 16
-21 45 0 16 5 19 20 14 16 -5 20 -2 20 19 0 14 5 26 10 26 7 0 6 8 -1 23 -7
12 -11 24 -10 27 1 3 -6 7 -16 9 -14 3 -15 1 -5 -12 10 -12 10 -18 -3 -31 -9
-9 -21 -16 -27 -16 -6 0 -17 -8 -25 -17 -13 -17 -14 -17 -11 2 2 10 12 22 23
25 25 6 26 32 3 42 -11 5 -18 18 -18 35 0 52 -77 144 -163 196 -31 19 -49 38
-53 55 -4 15 -12 34 -18 42 -7 8 -18 29 -25 45 -7 17 -20 46 -28 65 -31 71
-48 102 -65 117 -10 9 -18 21 -18 28 0 7 -11 25 -25 41 -14 16 -25 34 -25 41
0 7 -6 16 -13 20 -7 4 -20 20 -30 35 -25 39 -223 229 -350 335 -14 12 -40 29
-57 38 -17 9 -34 23 -37 31 -3 7 -13 14 -24 14 -10 0 -28 10 -41 23 -35 36
-95 77 -111 77 -8 0 -20 6 -26 14 -6 8 -26 20 -44 27 -18 7 -38 19 -45 26 -7
7 -26 13 -41 13 -15 0 -36 9 -46 20 -10 11 -26 20 -36 20 -16 0 -71 21 -130
50 -9 5 -37 11 -63 15 -25 4 -46 11 -46 15 0 13 -43 20 -56 9 -9 -7 -20 -5
-38 7 -21 13 -29 14 -41 4 -10 -9 -23 -9 -47 -1 -18 6 -50 13 -70 16 -27 4
-36 10 -31 20 3 9 0 21 -6 29 -6 7 -25 67 -42 132 -17 65 -35 133 -39 149 -19
66 -42 152 -49 185 -21 89 -59 173 -107 237 -13 17 -24 38 -24 46 0 8 -7 20
-15 27 -8 7 -15 18 -15 24 0 33 -244 299 -392 428 -68 60 -193 145 -206 140
-18 -6 -14 9 8 33 25 27 66 23 106 -12z m2752 8 c17 -7 32 -17 32 -22 0 -17
-29 -9 -57 17 -15 14 -23 24 -18 22 6 -3 25 -10 43 -17z m-3081 -127 c-3 -3
-12 -4 -19 -1 -8 3 -5 6 6 6 11 1 17 -2 13 -5z m-54 -41 c-7 -2 -19 -2 -25 0
-7 3 -2 5 12 5 14 0 19 -2 13 -5z m7010 -177 c65 -28 69 -35 54 -94 -8 -29
-17 -55 -21 -59 -6 -7 -79 -20 -152 -27 -78 -8 -166 -29 -179 -43 -8 -8 -29
-19 -47 -25 -18 -6 -49 -22 -68 -37 -60 -44 -200 -178 -236 -226 -47 -60 -122
-193 -162 -285 -18 -41 -37 -82 -42 -91 -11 -22 -47 -168 -66 -274 -16 -91
-26 -330 -17 -417 6 -54 20 -60 74 -32 17 8 34 13 37 9 9 -8 -24 -34 -60 -47
-49 -17 -29 -82 42 -138 49 -39 50 -55 10 -148 -25 -59 -30 -84 -30 -154 -1
-58 -5 -89 -16 -103 -8 -11 -49 -31 -92 -45 -67 -22 -81 -31 -112 -72 -19 -26
-59 -94 -88 -152 -50 -100 -52 -108 -42 -145 13 -51 53 -137 83 -180 l24 -35
-34 -59 c-74 -131 -118 -243 -154 -386 -11 -47 -28 -101 -36 -119 -13 -28 -14
-42 -4 -87 15 -68 37 -64 46 8 9 67 69 302 89 347 21 48 20 37 -8 -71 -23 -90
-53 -251 -58 -314 -2 -24 -8 -31 -29 -33 l-27 -3 19 -61 c46 -148 132 -267
228 -318 75 -40 78 -46 84 -147 6 -107 3 -111 -77 -82 -106 39 -139 79 -221
268 -28 64 -55 116 -60 116 -22 2 -55 17 -55 26 0 5 -7 9 -15 9 -8 0 -15 5
-15 11 0 15 -23 33 -77 61 -24 12 -43 25 -43 30 0 4 -9 8 -20 8 -11 0 -20 5
-20 10 0 6 -5 10 -12 10 -6 0 -20 7 -30 17 -17 15 -18 15 -18 0 0 -24 -13 -21
-40 8 -13 14 -32 25 -42 25 -10 0 -29 10 -42 23 -33 31 -65 49 -77 42 -9 -6
-101 82 -179 170 -36 42 -43 52 -75 103 -11 17 -23 32 -27 32 -5 0 -8 9 -8 20
0 11 -4 20 -10 20 -5 0 -10 6 -10 13 0 7 -8 20 -17 29 -32 29 -63 69 -63 81 0
11 -46 86 -70 114 -5 7 -10 16 -10 21 0 5 -14 34 -31 65 -34 63 -44 92 -65
187 -13 60 -31 218 -27 248 0 7 4 64 7 125 4 62 11 128 16 147 5 19 16 80 26
135 9 55 20 104 25 109 4 5 5 14 3 21 -3 7 2 29 10 49 10 23 11 36 4 36 -11 0
-4 73 10 94 4 6 7 31 8 56 1 64 14 122 31 142 8 9 12 21 9 26 -3 5 3 33 14 63
11 29 20 62 20 72 0 13 5 17 15 13 11 -4 15 2 15 28 0 22 10 46 30 71 17 21
30 42 30 46 0 5 7 9 15 9 8 0 15 6 15 14 0 8 8 17 18 20 9 3 23 19 30 36 8 16
20 30 27 30 8 0 19 9 25 19 5 11 19 23 30 26 11 4 18 11 14 16 -3 5 8 24 25
42 16 17 41 44 55 60 14 15 31 27 39 27 8 0 20 7 27 15 7 8 16 12 21 9 5 -3 9
0 9 5 0 25 62 96 88 101 15 3 28 12 28 20 1 8 2 20 3 27 0 6 13 13 29 15 21 2
28 9 30 31 2 15 8 28 13 28 5 1 12 2 17 3 13 3 88 80 95 99 3 9 15 17 26 17
11 0 23 5 26 11 4 5 17 9 28 8 38 -2 47 1 47 17 0 9 7 14 18 13 26 -4 111 11
117 21 3 4 23 11 45 15 22 4 40 10 40 15 0 4 26 7 59 7 32 -1 65 3 72 9 8 6
42 14 76 18 35 4 89 16 120 26 32 11 69 20 84 20 14 0 29 4 35 10 13 13 163
52 178 47 7 -3 50 31 96 74 97 91 170 144 226 164 51 18 185 19 227 1z m160
-83 c47 -29 167 -141 167 -155 0 -12 -61 1 -80 17 -21 17 -134 55 -168 56 -26
0 -26 1 -5 11 15 7 23 23 28 54 3 24 8 44 11 44 2 0 23 -12 47 -27z m-6129
-34 c-3 -5 -10 -7 -15 -3 -5 3 -7 10 -3 15 3 5 10 7 15 3 5 -3 7 -10 3 -15z
m1001 -189 c-3 -5 -12 -7 -20 -3 -21 7 -19 13 6 13 11 0 18 -4 14 -10z m-1259
-35 c12 -18 16 -48 16 -115 0 -49 3 -91 6 -91 4 -1 17 -3 30 -4 40 -4 41 -7
137 -325 13 -41 34 -109 47 -150 l23 -76 -51 -2 c-32 -1 -55 3 -61 11 -9 11
-135 437 -149 502 -3 17 -26 71 -50 120 -48 101 -55 121 -36 118 6 -2 12 5 12
15 0 13 2 14 9 4 6 -10 10 -10 21 3 17 21 27 19 46 -10z m3914 -75 c0 -5 -5
-10 -11 -10 -5 0 -7 5 -4 10 3 6 8 10 11 10 2 0 4 -4 4 -10z m-65 -60 c-3 -5
-15 -10 -26 -10 -11 0 -17 5 -14 10 3 6 15 10 26 10 11 0 17 -4 14 -10z m-225
-131 c0 -5 -4 -9 -10 -9 -5 0 -10 7 -10 16 0 8 5 12 10 9 6 -3 10 -10 10 -16z
m-1940 -27 c36 -13 126 -46 200 -72 282 -101 418 -149 495 -178 44 -16 114
-42 155 -56 41 -15 84 -31 95 -36 11 -5 49 -19 85 -30 36 -12 74 -26 85 -30
11 -5 96 -36 188 -69 93 -33 180 -66 195 -73 32 -16 46 -60 26 -85 -12 -15
-13 -15 -8 -2 3 10 0 20 -6 24 -6 4 -100 38 -208 75 -108 38 -255 90 -327 115
-71 26 -193 69 -270 97 -77 28 -189 68 -250 89 -60 21 -119 43 -130 48 -11 5
-47 19 -80 30 -33 11 -91 32 -130 46 -38 14 -95 35 -125 45 -89 30 -120 44
-120 53 0 4 9 3 21 -3 11 -7 23 -9 25 -7 3 3 -8 11 -24 18 -17 7 -28 18 -25
26 6 16 47 8 133 -25z m4888 -391 c5 -15 -25 -195 -38 -227 -7 -19 -14 -21
-55 -17 -45 6 -186 -13 -214 -27 -8 -5 -15 -23 -15 -41 -1 -27 -6 -34 -29 -40
-36 -10 -57 -2 -57 21 0 10 -6 23 -14 29 -33 28 -24 64 22 90 14 8 15 12 5 22
-17 17 -16 39 1 39 7 0 16 -10 19 -21 l6 -21 30 21 c16 12 33 32 36 44 16 56
27 67 69 67 66 0 84 8 79 34 -4 18 1 25 18 29 13 4 28 2 33 -3 13 -13 29 -13
21 -1 -3 5 5 11 17 13 39 6 62 2 66 -11z m-6490 -69 c-5 -27 -28 -26 -28 2 0
19 4 24 15 19 9 -3 15 -12 13 -21z m39 -7 c-4 -8 -12 -15 -19 -14 -10 0 -10 2
0 6 6 2 12 12 12 21 0 8 3 13 6 9 4 -3 4 -13 1 -22z m1493 -45 c0 -5 -5 -10
-11 -10 -5 0 -7 5 -4 10 3 6 8 10 11 10 2 0 4 -4 4 -10z m697 -36 c-3 -3 -12
-4 -19 -1 -8 3 -5 6 6 6 11 1 17 -2 13 -5z m946 -5 c17 -8 23 -17 19 -31 -4
-18 -5 -18 -28 3 -37 35 -33 47 9 28z m2853 -144 c9 -19 9 -28 -3 -44 -8 -12
-11 -21 -7 -21 19 0 -21 -28 -56 -39 -31 -9 -40 -17 -41 -34 0 -17 -5 -12 -22
21 l-22 44 25 20 c14 11 40 33 59 49 42 35 53 36 67 4z m-6316 -4 c24 -46 4
-56 -22 -11 -14 25 -14 30 -3 30 8 0 19 -9 25 -19z m3368 -20 c-15 -5 -19 4
-11 24 6 18 7 18 13 -1 4 -10 3 -21 -2 -23z m-9 -20 c11 -20 5 -31 -16 -31 -7
0 -13 11 -13 25 0 29 15 33 29 6z m3231 -10 c0 -12 -56 -34 -72 -28 -7 3 2 11
22 20 41 19 50 20 50 8z m-6194 -67 c-15 -14 -16 -14 -16 0 0 9 6 25 13 37
l12 20 3 -21 c2 -11 -4 -27 -12 -36z m6300 -159 c-24 -24 -20 -26 21 -9 47 20
125 27 167 15 73 -20 118 -95 132 -222 3 -35 11 -72 16 -82 12 -24 45 -57 57
-57 4 0 20 -9 34 -20 21 -16 25 -28 24 -63 -2 -33 -7 -44 -25 -52 -13 -5 -25
-20 -29 -32 -3 -14 -13 -23 -24 -23 -10 0 -22 -6 -26 -12 -4 -7 -18 -19 -30
-26 -19 -10 -23 -10 -24 0 0 7 -4 4 -9 -7 -7 -17 -9 -17 -9 -2 -1 23 -26 22
-51 -3 -27 -27 -70 -37 -84 -18 -11 15 -58 39 -114 57 -33 10 -62 6 -62 -10 0
-5 -9 -9 -20 -9 -11 0 -20 -4 -20 -10 0 -5 -6 -10 -12 -10 -14 0 -68 -96 -68
-121 0 -9 -3 -19 -7 -22 -11 -11 -14 -125 -3 -132 6 -3 10 -17 10 -29 0 -13 9
-43 19 -67 20 -47 38 -203 24 -212 -13 -8 -68 16 -101 44 -16 14 -48 53 -71
86 -56 83 -85 109 -156 143 -41 19 -91 58 -151 115 -49 48 -107 95 -129 105
-22 10 -55 31 -72 46 -49 43 -87 69 -96 66 -5 -1 -6 2 -2 8 3 5 0 13 -9 16
-23 9 -31 120 -13 164 31 71 76 94 287 144 58 13 152 43 210 66 70 27 138 45
204 55 54 7 102 17 105 22 3 5 24 22 46 37 25 17 31 25 18 21 -18 -5 -22 -3
-17 9 3 9 10 16 16 16 5 0 6 5 3 10 -8 13 -35 -13 -35 -34 0 -8 -4 -18 -10
-21 -5 -3 -7 0 -4 9 4 11 0 13 -18 9 -21 -5 -20 -3 7 17 17 13 43 35 60 49 16
14 23 18 16 8 -8 -9 -11 -21 -7 -24 12 -12 26 21 21 47 -4 21 -2 20 12 -7 15
-29 15 -33 -1 -48z m-1106 59 c0 -3 -6 -12 -14 -19 -17 -17 -30 -7 -15 12 12
13 29 18 29 7z m218 -26 c15 -19 0 -92 -19 -96 -13 -2 -16 6 -14 50 1 29 3 54
4 56 3 6 20 1 29 -10z m927 2 c3 -5 1 -10 -4 -10 -6 0 -11 5 -11 10 0 6 2 10
4 10 3 0 8 -4 11 -10z m-6625 -30 c0 -5 -8 -10 -17 -10 -15 0 -16 2 -3 10 19
12 20 12 20 0z m82 -62 c-7 -7 -12 -22 -12 -34 0 -13 -5 -26 -11 -30 -9 -5
-10 1 -5 22 8 29 23 54 34 54 3 0 1 -5 -6 -12z m-182 -8 c0 -14 -29 -32 -53
-34 -14 0 -24 -7 -23 -16 1 -9 -7 -14 -19 -13 -11 1 -24 -5 -28 -13 -4 -8 -12
-14 -18 -14 -13 0 27 77 47 88 19 11 94 12 94 2z m5820 -31 c0 -23 -28 -26
-37 -3 -6 16 15 37 29 28 4 -3 8 -14 8 -25z m-2104 -57 c0 -37 4 -119 8 -182
7 -111 6 -114 -9 -80 -14 29 -16 63 -13 187 3 151 12 200 14 75z m1895 58 c20
-11 27 -50 8 -50 -11 0 -23 11 -48 43 -12 15 -11 17 3 17 10 0 26 -5 37 -10z
m-4783 -12 c9 -9 18 -9 37 0 32 15 30 15 50 -5 10 -9 32 -17 51 -17 19 -1 34
-5 34 -9 0 -5 5 -5 10 -2 6 3 10 -5 10 -19 0 -14 5 -28 11 -32 17 -10 133 -13
139 -3 9 13 50 -1 50 -17 0 -16 16 -19 25 -4 11 18 81 -8 98 -36 4 -8 17 -14
27 -14 13 0 17 -5 14 -15 -4 -9 1 -18 10 -21 22 -9 88 -72 110 -107 13 -18 22
-24 30 -18 13 11 40 -9 80 -61 16 -21 37 -38 47 -38 11 0 19 -7 19 -15 0 -8 5
-15 11 -15 7 0 9 10 7 25 -6 27 9 33 33 13 36 -31 133 -162 135 -184 2 -13 12
-40 23 -58 12 -18 21 -49 21 -67 -1 -32 -1 -33 -15 -15 -9 12 -15 15 -15 7 0
-9 -9 -12 -24 -9 -19 4 -22 1 -18 -14 2 -11 0 -29 -6 -41 -11 -24 -25 -73 -26
-97 -1 -8 -5 -14 -11 -13 -59 9 -60 8 -60 -17 0 -20 -6 -26 -27 -28 -20 -2
-28 -9 -28 -23 0 -10 5 -19 12 -19 6 0 8 -3 5 -6 -3 -4 -22 1 -41 10 -39 19
-62 20 -71 6 -4 -6 -14 -10 -23 -9 -40 4 -59 -3 -86 -27 -19 -18 -41 -28 -68
-29 -24 -2 -48 -11 -63 -25 -21 -20 -33 -22 -123 -21 l-99 2 -19 -36 c-16 -31
-22 -35 -46 -29 -17 3 -28 1 -28 -5 0 -6 -7 -11 -15 -11 -8 0 -15 -4 -15 -10
0 -5 -12 -10 -28 -10 -15 0 -38 -7 -51 -16 -21 -15 -26 -15 -68 1 -25 10 -60
18 -77 19 -27 1 -31 -3 -34 -27 -2 -15 -6 -27 -10 -27 -110 -8 -127 -13 -118
-36 7 -19 -4 -18 -19 2 -8 11 -30 18 -66 20 -50 2 -51 2 -14 -5 22 -5 30 -9
18 -10 -12 0 -26 -9 -32 -18 -8 -14 -13 -15 -35 -5 -16 7 -26 8 -26 2 0 -6 -7
-10 -16 -10 -8 0 -36 -12 -62 -26 -37 -21 -64 -27 -127 -30 -44 -3 -92 -6
-107 -9 -16 -2 -28 0 -28 6 0 6 -5 7 -12 3 -6 -4 -31 -9 -56 -11 -24 -2 -58
-11 -74 -19 -16 -9 -36 -13 -44 -10 -8 3 -14 1 -14 -4 0 -5 -13 -7 -29 -4 -30
6 -137 -37 -124 -49 3 -4 -1 -7 -11 -7 -9 0 -14 5 -11 10 9 14 -2 12 -29 -5
-37 -25 -294 -42 -408 -27 -50 6 -93 13 -95 16 -7 7 -4 300 3 354 4 23 10 45
15 48 5 3 9 16 9 29 0 14 9 40 20 60 11 20 20 43 20 52 0 9 6 24 13 32 7 9 19
36 26 61 21 72 83 245 90 250 4 3 15 22 24 42 10 20 22 40 27 43 6 3 10 12 10
19 0 8 29 43 63 80 35 36 62 68 60 70 -6 6 64 57 74 54 4 -2 20 7 33 20 35 33
58 44 65 32 3 -5 11 -10 16 -10 6 0 7 5 4 10 -4 6 7 10 27 10 18 0 51 7 73 14
22 8 51 12 64 9 17 -4 22 -2 17 6 -4 6 -2 11 3 11 6 0 11 -5 11 -12 0 -9 3 -9
12 0 7 7 24 12 40 12 15 0 31 8 37 18 6 10 11 12 11 4 0 -9 5 -10 19 -2 11 5
28 10 39 10 10 0 25 11 32 26 l14 25 13 -25 c14 -27 28 -33 37 -17 9 13 89 51
109 51 9 0 17 -3 17 -7 0 -5 12 -13 26 -20 31 -14 70 0 79 29 4 12 16 18 36
18 16 0 29 5 29 11 0 7 11 8 31 4 32 -7 92 11 84 26 -7 10 58 23 87 16 13 -2
34 -1 48 3 37 12 55 11 68 -2z m-1031 -120 c-3 -8 -6 -5 -6 6 -1 11 2 17 5 13
3 -3 4 -12 1 -19z m3878 -128 c3 -5 1 -10 -4 -10 -6 0 -11 5 -11 10 0 6 2 10
4 10 3 0 8 -4 11 -10z m5 -34 c0 -3 -4 -8 -10 -11 -5 -3 -10 -1 -10 4 0 6 5
11 10 11 6 0 10 -2 10 -4z m-5 -58 c3 -13 1 -36 -4 -53 l-9 -30 -1 37 c-1 20
-4 43 -7 52 -3 9 -1 16 5 16 6 0 13 -10 16 -22z m1965 -198 c0 -11 -4 -20 -10
-20 -5 0 -10 2 -10 4 0 2 -3 11 -6 20 -4 11 -1 16 10 16 9 0 16 -8 16 -20z
m-1936 -98 c9 -40 13 -78 10 -84 -5 -7 -2 -8 6 -3 8 5 11 3 8 -5 -2 -8 -9 -15
-15 -17 -9 -3 -20 49 -40 182 -8 55 14 4 31 -73z m1776 59 c6 -13 6 -22 1 -26
-9 -5 -31 24 -31 39 0 14 20 4 30 -13z m-2446 -51 c24 -9 24 -10 9 -40 -8 -17
-17 -29 -20 -26 -2 2 0 13 6 24 9 16 7 19 -6 18 -10 0 -19 7 -21 17 -4 20 -2
20 32 7z m156 0 c0 -5 -2 -10 -4 -10 -3 0 -8 5 -11 10 -3 6 -1 10 4 10 6 0 11
-4 11 -10z m-120 -92 c0 -5 -4 -8 -10 -8 -5 0 -10 10 -10 23 0 18 2 19 10 7 5
-8 10 -18 10 -22z m-3990 12 c0 -5 -2 -10 -4 -10 -3 0 -8 5 -11 10 -3 6 -1 10
4 10 6 0 11 -4 11 -10z m3761 -31 c16 -19 21 -20 36 -8 15 13 16 12 11 -8 -4
-13 -2 -23 3 -23 15 0 10 -38 -7 -44 -8 -3 -12 -2 -9 4 3 6 1 10 -4 10 -6 0
-11 7 -11 15 0 21 -27 30 -45 15 -10 -8 -12 -22 -8 -43 6 -32 6 -32 -15 -13
-12 10 -20 21 -19 25 2 3 8 17 14 31 6 14 14 33 17 43 7 22 15 22 37 -4z
m-473 -11 c24 -24 14 -39 -25 -36 -43 4 -55 24 -21 37 31 13 32 13 46 -1z
m562 -15 c0 -19 -3 -24 -10 -17 -6 6 -8 18 -4 27 9 24 14 21 14 -10z m-552
-75 c-6 -18 -28 -21 -28 -4 0 9 7 16 16 16 9 0 14 -5 12 -12z m-3318 -19 c-7
-11 -14 -18 -17 -15 -8 8 5 36 17 36 7 0 7 -6 0 -21z m3640 -8 c0 -4 -11 -13
-25 -19 -23 -11 -25 -9 -25 12 0 12 3 26 6 29 8 8 44 -10 44 -22z m3470 -85
c13 -26 8 -56 -10 -56 -5 0 -10 11 -10 24 0 13 -3 31 -6 40 -10 25 11 18 26
-8z m-4034 -81 c-21 -16 -32 -13 -21 4 3 6 14 11 23 11 15 -1 15 -2 -2 -15z
m410 -32 c-10 -26 -18 -8 -9 23 5 21 8 24 11 11 2 -10 1 -25 -2 -34z m141 25
c-3 -8 -6 -5 -6 6 -1 11 2 17 5 13 3 -3 4 -12 1 -19z m2703 -404 c0 -8 -5 -12
-10 -9 -6 4 -8 11 -5 16 9 14 15 11 15 -7z m284 0 c4 -11 1 -14 -11 -12 -9 2
-18 9 -21 16 -6 18 25 15 32 -4z m46 -87 c0 -5 -9 2 -20 16 -11 14 -20 29 -20
33 0 4 9 -3 20 -16 11 -13 20 -27 20 -33z m-4590 3 c0 -5 -5 -10 -11 -10 -5 0
-7 5 -4 10 3 6 8 10 11 10 2 0 4 -4 4 -10z m4637 -70 c12 -22 18 -40 14 -40
-4 0 -16 16 -27 35 -10 19 -22 35 -26 35 -5 0 -8 4 -8 10 0 20 26 -2 47 -40z
m-5648 19 c20 -7 30 -16 27 -24 -3 -8 7 -26 20 -40 29 -31 24 -41 -27 -50 -33
-6 -39 -3 -67 30 -16 21 -32 50 -34 66 -4 26 -2 29 22 29 15 0 41 -5 59 -11z
m226 -15 c112 -19 140 -34 65 -33 -80 1 -203 22 -208 37 -5 16 33 15 143 -4z
m-415 -64 c0 -11 7 -20 15 -20 8 0 15 -4 15 -10 0 -5 15 -29 33 -53 17 -24 38
-53 46 -65 8 -11 47 -44 87 -74 74 -54 80 -64 65 -117 -6 -23 -10 -20 -71 51
-36 42 -82 97 -102 122 -36 46 -97 101 -121 109 -9 3 -9 8 2 20 7 9 11 23 8
31 -6 15 1 26 15 26 4 0 8 -9 8 -20z m641 -322 c-6 -17 -11 -42 -11 -54 0 -13
-4 -24 -10 -24 -5 0 -10 6 -10 13 0 8 -4 7 -10 -3 -15 -23 -12 -32 9 -25 26 8
37 -26 20 -64 -13 -28 -55 -61 -79 -61 -21 0 -40 28 -40 59 0 17 -5 31 -10 31
-19 0 -67 -29 -73 -43 -6 -16 -77 -29 -77 -14 0 28 42 65 80 71 39 6 80 25 80
36 0 12 -92 -3 -97 -16 -7 -18 -23 -18 -23 0 0 8 -9 18 -21 21 l-21 7 22 15
c18 13 29 14 60 4 55 -16 88 -14 100 8 15 29 13 31 -29 31 -37 0 -61 14 -47
27 3 3 29 1 57 -4 66 -14 79 -9 109 34 l25 37 3 -28 c2 -15 -1 -41 -7 -58z
m4694 53 c3 -6 -4 -9 -15 -8 -11 1 -20 5 -20 9 0 11 28 10 35 -1z m746 -314
c-10 -9 -11 -8 -5 6 3 10 9 15 12 12 3 -3 0 -11 -7 -18z m-4941 -191 c0 -11
-19 -15 -25 -6 -3 5 1 10 9 10 9 0 16 -2 16 -4z m4050 -351 c0 -8 -4 -15 -10
-15 -5 0 -10 7 -10 15 0 8 5 15 10 15 6 0 10 -7 10 -15z m-4150 -115 c0 -5 -2
-10 -4 -10 -3 0 -8 5 -11 10 -3 6 -1 10 4 10 6 0 11 -4 11 -10z m2625 -40
c-10 -11 -23 -20 -28 -20 -6 0 0 9 13 20 13 11 25 20 28 20 3 0 -3 -9 -13 -20z
m-78 -77 c-37 -40 -107 -130 -107 -137 0 -3 -13 -19 -30 -37 -16 -18 -27 -36
-25 -39 3 -4 -4 -15 -15 -25 -11 -10 -20 -28 -20 -39 0 -17 -2 -18 -10 -6 -7
11 -10 12 -10 2 0 -8 -15 -46 -33 -85 -46 -98 -87 -199 -87 -214 0 -7 -6 -27
-14 -45 -8 -18 -36 -100 -62 -183 -26 -82 -48 -152 -50 -154 -23 -26 0 129 43
288 68 255 174 444 351 623 52 54 97 96 100 94 2 -3 -12 -22 -31 -43z m-1833
-168 c-4 -8 -11 -15 -16 -15 -6 0 -5 6 2 15 7 8 14 15 16 15 2 0 1 -7 -2 -15z
m2742 -885 c8 0 14 -4 14 -10 0 -5 -13 -10 -30 -10 -21 0 -30 5 -30 16 0 11 5
14 16 10 9 -3 22 -6 30 -6z m2014 -442 c0 -6 -9 1 -20 15 -11 14 -20 29 -20
34 1 11 40 -37 40 -49z m-1880 12 c0 -5 -7 -10 -15 -10 -8 0 -15 5 -15 10 0 6
7 10 15 10 8 0 15 -4 15 -10z m2105 -48 c-9 -9 -25 11 -25 31 1 21 1 21 15 -3
7 -14 12 -27 10 -28z m-1915 -52 c0 -5 -4 -10 -10 -10 -5 0 -10 5 -10 10 0 6
5 10 10 10 6 0 10 -4 10 -10z m1830 -136 c0 -8 -4 -12 -10 -9 -5 3 -10 10 -10
16 0 5 5 9 10 9 6 0 10 -7 10 -16z m-160 -44 c0 -11 -4 -20 -10 -20 -5 0 -10
9 -10 20 0 11 5 20 10 20 6 0 10 -9 10 -20z m-41 -96 c-6 -8 -14 -28 -18 -46
-4 -17 -13 -34 -20 -36 -17 -6 -7 45 14 68 7 8 17 29 21 45 8 27 9 28 12 7 2
-13 -2 -30 -9 -38z m-4736 31 c-3 -9 -8 -14 -10 -11 -3 3 -2 9 2 15 9 16 15
13 8 -4z m4957 -72 c0 -16 5 -35 10 -43 7 -11 10 -11 10 -2 0 7 5 10 11 7 6
-4 8 -14 5 -22 -3 -8 -2 -12 3 -9 5 3 11 -1 15 -9 7 -19 26 -19 26 0 0 8 5 15
11 15 7 0 8 -11 4 -30 -5 -22 -3 -32 9 -36 9 -3 16 -11 16 -16 0 -6 -6 -5 -15
2 -13 11 -15 8 -15 -14 0 -14 -4 -26 -10 -26 -5 0 -10 8 -10 17 0 23 -29 53
-46 46 -8 -3 -14 0 -14 6 0 6 -5 11 -11 11 -12 0 -38 29 -39 43 0 4 7 7 15 7
18 0 18 5 5 30 -11 20 -4 50 11 50 5 0 9 -12 9 -27z m-190 -94 c0 -34 -15 -38
-24 -6 -9 36 -7 47 9 41 9 -4 15 -19 15 -35z m88 -18 c-2 -5 5 -16 15 -23 25
-19 34 -83 14 -103 -15 -14 -17 -14 -22 8 -4 13 -5 27 -4 33 3 19 -2 32 -21
54 -11 13 -20 27 -20 32 0 4 9 8 20 8 11 0 19 -4 18 -9z m-59 -44 c0 -21 -1
-21 -9 -2 -12 28 -12 37 0 30 6 -3 10 -16 9 -28z m126 14 c3 -5 1 -12 -5 -16
-5 -3 -10 1 -10 9 0 18 6 21 15 7z m280 -41 c5 -18 4 -22 -4 -14 -6 6 -14 21
-16 34 -6 30 10 14 20 -20z m-205 -1 c0 -17 -4 -28 -10 -24 -5 3 -10 17 -10
31 0 13 5 24 10 24 6 0 10 -14 10 -31z m110 9 c0 -6 11 -25 24 -43 15 -20 21
-36 16 -45 -9 -15 -30 -5 -30 15 0 9 -6 12 -15 9 -8 -4 -15 -2 -15 4 0 6 5 12
11 14 7 2 7 12 0 31 -7 17 -7 27 -1 27 6 0 10 -5 10 -12z m47 -30 c-3 -8 -6
-5 -6 6 -1 11 2 17 5 13 3 -3 4 -12 1 -19z m-1677 -42 c0 -2 -7 -6 -15 -10 -8
-3 -15 -1 -15 4 0 6 7 10 15 10 8 0 15 -2 15 -4z m1699 -53 c0 -25 -1 -26 -9
-8 -12 27 -12 35 0 35 6 0 10 -12 9 -27z m-112 -22 c0 -11 -5 -18 -9 -15 -4 3
-5 11 -1 19 7 21 12 19 10 -4z m193 -2 c0 -6 -4 -7 -10 -4 -5 3 -10 11 -10 16
0 6 5 7 10 4 6 -3 10 -11 10 -16z m-63 -11 c-3 -8 -6 -5 -6 6 -1 11 2 17 5 13
3 -3 4 -12 1 -19z m-240 -10 c-3 -8 -6 -5 -6 6 -1 11 2 17 5 13 3 -3 4 -12 1
-19z m323 -60 c0 -5 -4 -8 -10 -8 -5 0 -10 10 -10 23 0 18 2 19 10 7 5 -8 10
-18 10 -22z m34 -113 c-3 -6 3 -28 11 -49 9 -21 14 -40 11 -43 -2 -2 -12 13
-21 34 -9 21 -20 45 -24 53 -9 18 10 43 21 27 3 -6 4 -15 2 -22z m95 -64 c1
-10 -4 -9 -14 5 -8 10 -14 33 -14 49 l1 30 13 -35 c7 -19 14 -41 14 -49z m11
-51 c0 13 1 13 10 0 13 -20 13 -43 0 -35 -5 3 -10 1 -10 -4 0 -6 7 -11 16 -11
8 0 12 -5 9 -10 -4 -6 -11 -8 -16 -5 -5 4 -9 0 -9 -7 -1 -17 -70 63 -70 81 0
11 4 9 15 -5 14 -18 14 -18 15 5 l0 23 20 -23 c14 -17 19 -20 20 -9z m60 -30
c0 -5 -4 -10 -10 -10 -5 0 -10 5 -10 10 0 6 5 10 10 10 6 0 10 -4 10 -10z m-2
-67 c16 -35 15 -43 -4 -43 -8 0 -12 -5 -9 -10 4 -6 10 -8 15 -5 5 3 11 1 15
-5 4 -6 10 -8 14 -6 4 3 5 -8 3 -25 -5 -35 -28 -38 -42 -6 -6 12 -15 29 -21
38 -12 16 -5 89 9 89 4 0 13 -12 20 -27z m-2357 -217 c24 -13 26 -18 14 -46
-5 -13 4 -16 54 -15 49 1 61 -2 64 -17 3 -10 1 -18 -4 -18 -5 0 -9 -4 -9 -9 0
-4 11 -6 25 -3 35 6 41 -17 15 -61 l-21 -35 -66 3 c-37 2 -69 8 -73 15 -4 6
-16 11 -26 10 -35 -4 -54 0 -54 11 0 10 -46 52 -60 55 -3 1 -19 6 -36 13 -30
11 -30 13 -20 47 7 20 16 32 23 29 7 -2 13 -1 13 4 0 4 12 14 26 21 21 12 27
12 34 1 6 -11 13 -10 36 7 18 12 31 16 35 10 4 -5 17 -15 30 -22z m-211 -31
c0 -8 -4 -15 -10 -15 -5 0 -10 7 -10 15 0 8 5 15 10 15 6 0 10 -7 10 -15z
m1960 -55 c0 -13 -1 -13 -10 0 -5 8 -10 22 -10 30 0 13 1 13 10 0 5 -8 10 -22
10 -30z m-3572 -22 c-15 -27 -35 -41 -63 -45 -18 -2 -18 -2 -2 8 9 5 17 18 17
29 0 13 9 20 28 23 15 2 28 5 30 6 1 0 -3 -9 -10 -21z m2072 -13 c0 -8 -7 -15
-16 -15 -14 0 -14 3 -4 15 7 8 14 15 16 15 2 0 4 -7 4 -15z m-10 -57 c0 -19
-2 -20 -10 -8 -13 19 -13 30 0 30 6 0 10 -10 10 -22z m-260 -23 c0 -8 -4 -15
-10 -15 -5 0 -7 7 -4 15 4 8 8 15 10 15 2 0 4 -7 4 -15z m1900 -162 c0 -20 -3
-24 -11 -16 -7 7 -9 19 -6 27 10 24 17 19 17 -11z"/>
<path d="M1720 7889 c0 -5 5 -7 10 -4 6 3 10 8 10 11 0 2 -4 4 -10 4 -5 0 -10
-5 -10 -11z"/>
<path d="M1782 7800 c0 -14 2 -19 5 -12 2 6 2 18 0 25 -3 6 -5 1 -5 -13z"/>
<path d="M2100 7643 c1 -36 1 -37 16 -18 17 22 15 46 -3 53 -9 2 -13 -8 -13
-35z"/>
<path d="M2071 7614 c0 -11 3 -14 6 -6 3 7 2 16 -1 19 -3 4 -6 -2 -5 -13z"/>
<path d="M2437 7570 c3 -11 7 -20 9 -20 2 0 4 9 4 20 0 11 -4 20 -9 20 -5 0
-7 -9 -4 -20z"/>
<path d="M2422 7540 c0 -14 2 -19 5 -12 2 6 2 18 0 25 -3 6 -5 1 -5 -13z"/>
<path d="M2441 7410 c0 -8 4 -24 9 -35 5 -13 9 -14 9 -5 0 8 -4 24 -9 35 -5
13 -9 14 -9 5z"/>
<path d="M2285 6910 c-4 -6 -3 -16 3 -22 13 -13 23 4 13 21 -7 10 -10 10 -16
1z"/>
<path d="M2350 6901 c0 -9 41 -23 48 -16 2 2 1 8 -3 14 -8 13 -45 15 -45 2z"/>
<path d="M4464 6083 c-7 -57 -22 -83 -35 -61 -11 18 -38 -9 -32 -31 5 -19 39
-35 54 -25 4 2 10 18 14 34 4 16 11 32 16 35 12 8 12 92 0 100 -5 3 -13 -21
-17 -52z"/>
<path d="M4487 6003 c-13 -12 -7 -43 8 -43 9 0 15 9 15 25 0 24 -10 32 -23 18z"/>
<path d="M4348 5932 c-24 -15 -41 -56 -20 -50 15 5 50 -28 54 -51 1 -14 9 -27
17 -29 11 -4 12 2 6 29 -7 32 -11 58 -14 102 -1 20 -7 20 -43 -1z"/>
<path d="M4162 5778 c-14 -14 -16 -38 -3 -38 10 0 26 39 19 46 -2 2 -10 -2
-16 -8z"/>
<path d="M4095 5699 c-10 -15 3 -25 16 -12 7 7 7 13 1 17 -6 3 -14 1 -17 -5z"/>
<path d="M4200 5685 c0 -8 5 -15 10 -15 6 0 10 7 10 15 0 8 -4 15 -10 15 -5 0
-10 -7 -10 -15z"/>
<path d="M3900 5590 c-8 -5 -12 -12 -9 -15 4 -3 12 1 19 10 14 17 11 19 -10 5z"/>
<path d="M3845 5539 c-4 -6 -5 -13 -2 -16 7 -7 27 6 27 18 0 12 -17 12 -25 -2z"/>
<path d="M7005 7649 c-4 -6 -5 -12 -2 -15 2 -3 7 2 10 11 7 17 1 20 -8 4z"/>
<path d="M6811 7349 c-12 -19 -21 -39 -21 -46 0 -7 -8 -17 -17 -22 -10 -6 -13
-11 -6 -11 12 0 7 -28 -6 -40 -8 -7 -31 -66 -49 -130 -9 -30 -23 -62 -32 -70
-9 -8 -15 -20 -13 -26 2 -7 -2 -18 -9 -25 -8 -9 -13 -39 -13 -79 0 -36 -4 -78
-8 -95 -5 -21 -5 -26 3 -15 7 12 10 8 10 -17 0 -18 -4 -33 -10 -33 -5 0 -10
-16 -10 -35 0 -19 4 -35 9 -35 11 0 14 13 36 155 28 172 100 418 151 517 22
42 9 47 -15 7z"/>
<path d="M6389 5591 c-13 -28 -31 -52 -40 -54 -9 -3 -20 -19 -24 -36 -4 -18
-13 -35 -21 -38 -8 -3 -14 -15 -14 -27 0 -17 2 -18 10 -6 19 29 10 -5 -10 -37
-10 -18 -20 -49 -22 -70 -1 -21 -5 -40 -10 -43 -11 -8 -19 -112 -7 -105 11 8
11 -53 -1 -80 -7 -17 -9 -16 -11 10 -1 18 -5 6 -10 -30 -10 -76 0 -226 26
-355 1 -8 3 35 4 95 1 118 22 314 46 431 12 62 90 327 110 377 15 36 -2 15
-26 -32z"/>
<path d="M6351 4684 c0 -11 3 -14 6 -6 3 7 2 16 -1 19 -3 4 -6 -2 -5 -13z"/>
<path d="M3098 7413 c7 -3 16 -2 19 1 4 3 -2 6 -13 5 -11 0 -14 -3 -6 -6z"/>
<path d="M3095 7390 c3 -5 16 -10 28 -9 21 0 21 1 2 9 -28 12 -37 12 -30 0z"/>
<path d="M8132 6306 c-17 -17 -38 -53 -47 -80 -21 -61 -16 -153 8 -171 10 -7
17 -17 17 -24 0 -6 7 -11 15 -11 8 0 15 -4 15 -8 0 -4 11 -9 25 -10 14 -1 25
3 25 9 0 6 -7 9 -15 5 -8 -3 -15 -1 -15 4 0 6 6 10 13 10 9 0 9 2 -1 9 -11 7
-11 9 2 14 9 4 16 14 16 24 0 10 7 26 15 37 9 12 14 46 14 105 0 84 0 86 -28
103 -29 16 -30 15 -59 -16z"/>
<path d="M2608 6163 c7 -3 16 -2 19 1 4 3 -2 6 -13 5 -11 0 -14 -3 -6 -6z"/>
<path d="M905 6050 c-3 -5 -1 -10 4 -10 6 0 11 5 11 10 0 6 -2 10 -4 10 -3 0
-8 -4 -11 -10z"/>
<path d="M2881 5434 c6 -7 9 -21 7 -30 -2 -11 4 -20 13 -22 13 -2 16 4 15 29
-1 26 -6 33 -24 34 -16 1 -19 -1 -11 -11z"/>
<path d="M1810 4226 c0 -2 7 -6 15 -10 8 -3 15 -1 15 4 0 6 -7 10 -15 10 -8 0
-15 -2 -15 -4z"/>
<path d="M5995 351 c-6 -11 9 -23 19 -14 9 9 7 23 -3 23 -6 0 -12 -4 -16 -9z"/>
<path d="M400 8350 c0 -12 28 -25 36 -17 3 3 -4 10 -15 17 -15 7 -21 7 -21 0z"/>
<path d="M4488 8133 c7 -3 16 -2 19 1 4 3 -2 6 -13 5 -11 0 -14 -3 -6 -6z"/>
<path d="M8250 8059 c-19 -4 -43 -17 -53 -30 -17 -21 -17 -23 2 -40 11 -10 27
-16 35 -13 9 3 35 -3 58 -14 24 -11 71 -22 106 -25 l62 -5 0 32 c0 41 -16 60
-60 70 -3 1 -15 7 -28 14 -28 16 -76 20 -122 11z"/>
<path d="M4753 7963 c9 -9 20 -13 24 -9 4 4 1 11 -7 16 -25 16 -35 11 -17 -7z"/>
<path d="M4790 7946 c0 -5 217 -116 225 -116 3 0 5 5 5 10 0 6 -5 10 -12 10
-6 0 -19 6 -27 14 -9 7 -43 24 -76 37 -33 12 -67 29 -76 36 -15 12 -39 18 -39
9z"/>
<path d="M5125 7776 c17 -7 32 -11 35 -9 8 7 -24 23 -45 22 -15 0 -13 -3 10
-13z"/>
<path d="M5202 7748 c2 -6 10 -14 16 -16 7 -2 10 2 6 12 -7 18 -28 22 -22 4z"/>
<path d="M5245 7720 c3 -5 10 -10 16 -10 5 0 9 5 9 10 0 6 -7 10 -16 10 -8 0
-12 -4 -9 -10z"/>
<path d="M8160 7251 c0 -5 3 -16 6 -24 5 -14 8 -13 23 1 10 9 16 20 14 25 -6
10 -43 9 -43 -2z"/>
<path d="M1082 6758 c7 -19 38 -22 38 -4 0 10 -9 16 -21 16 -12 0 -19 -5 -17
-12z"/>
<path d="M1037 6737 c-3 -8 -2 -20 3 -26 5 -9 8 -4 8 13 0 29 -3 32 -11 13z"/>
<path d="M1010 6710 c0 -5 5 -10 11 -10 5 0 7 5 4 10 -3 6 -8 10 -11 10 -2 0
-4 -4 -4 -10z"/>
<path d="M1010 6560 c0 -6 7 -10 15 -10 8 0 15 2 15 4 0 2 -7 6 -15 10 -8 3
-15 1 -15 -4z"/>
<path d="M885 6520 c3 -5 8 -10 11 -10 2 0 4 5 4 10 0 6 -5 10 -11 10 -5 0 -7
-4 -4 -10z"/>
<path d="M520 6074 c0 -8 5 -12 10 -9 6 3 10 10 10 16 0 5 -4 9 -10 9 -5 0
-10 -7 -10 -16z"/>
<path d="M475 5999 c-4 -6 -5 -13 -2 -16 7 -7 27 6 27 18 0 12 -17 12 -25 -2z"/>
<path d="M265 4980 c3 -5 8 -10 11 -10 2 0 4 5 4 10 0 6 -5 10 -11 10 -5 0 -7
-4 -4 -10z"/>
<path d="M890 4753 c0 -10 5 -25 10 -33 7 -11 10 -7 10 18 0 17 -4 32 -10 32
-5 0 -10 -8 -10 -17z"/>
<path d="M487 4713 c-4 -3 -7 -20 -7 -37 1 -27 2 -29 11 -12 9 15 13 16 20 5
6 -10 9 -4 9 19 0 30 -16 43 -33 25z"/>
<path d="M411 4341 c-9 -6 -7 -10 8 -14 12 -3 21 -1 21 3 0 14 -15 19 -29 11z"/>
<path d="M399 4297 c7 -7 14 -8 21 -1 6 6 2 10 -12 11 -16 2 -18 -1 -9 -10z"/>
<path d="M1270 4275 c7 -9 15 -13 17 -11 7 7 -7 26 -19 26 -6 0 -6 -6 2 -15z"/>
<path d="M396 4273 c-3 -3 0 -15 5 -26 9 -16 13 -17 20 -6 7 11 9 10 9 -4 0
-11 9 -32 21 -48 11 -16 16 -29 10 -29 -6 0 -11 -4 -11 -10 0 -5 7 -7 15 -4
19 8 19 38 1 53 -7 6 -16 24 -19 40 -6 26 -37 47 -51 34z"/>
<path d="M1166 4236 c11 -14 25 -26 33 -26 11 0 11 3 1 16 -8 8 -22 20 -33 26
-19 10 -19 10 -1 -16z"/>
<path d="M476 4084 c-4 -10 -2 -13 7 -9 6 4 3 -1 -7 -9 -16 -13 -17 -19 -8
-28 7 -7 12 -8 12 -2 0 5 5 2 10 -6 7 -11 10 -11 10 -2 0 7 5 10 10 7 6 -3 10
-2 10 4 0 5 3 17 7 27 4 12 3 15 -5 10 -7 -4 -12 -1 -12 8 0 21 -26 21 -34 0z"/>
<path d="M541 4083 c-1 -12 4 -25 9 -28 12 -7 12 2 0 30 -8 19 -9 19 -9 -2z"/>
<path d="M1873 3728 c-30 -14 -29 -26 2 -40 14 -6 25 -15 25 -19 0 -20 32 -14
59 12 17 16 41 29 53 29 22 1 23 1 4 15 -23 17 -110 19 -143 3z"/>
<path d="M1510 3700 c0 -12 -9 -31 -20 -43 -11 -12 -19 -28 -18 -37 4 -21 34
-19 30 3 -2 9 2 17 8 17 5 0 10 6 10 14 0 8 7 22 16 30 17 17 11 36 -12 36 -8
0 -14 -9 -14 -20z"/>
<path d="M1740 3465 c-17 -21 -8 -28 15 -11 11 8 14 15 8 19 -6 4 -16 0 -23
-8z"/>
<path d="M2058 3223 c7 -3 16 -2 19 1 4 3 -2 6 -13 5 -11 0 -14 -3 -6 -6z"/>
<path d="M1676 3160 c-15 -5 -36 -16 -45 -24 -10 -9 -21 -13 -26 -9 -4 5 -5 0
-2 -9 3 -10 2 -20 -4 -24 -16 -10 12 -35 36 -32 12 1 28 -2 36 -8 19 -15 68
-23 75 -13 2 4 11 6 18 3 22 -8 27 10 20 68 -6 53 -6 53 -43 54 -20 1 -49 -2
-65 -6z"/>
<path d="M4910 2631 c0 -10 19 -25 25 -20 1 2 -3 10 -11 17 -8 7 -14 8 -14 3z"/>
<path d="M3606 1757 c-11 -8 -16 -19 -12 -25 3 -6 -3 -13 -14 -17 -15 -5 -19
-12 -15 -25 4 -13 -1 -22 -15 -30 -13 -7 -20 -21 -20 -40 0 -17 -4 -30 -10
-30 -5 0 -10 -8 -9 -17 0 -11 3 -13 6 -5 2 6 9 12 15 12 17 0 -24 -41 -49 -51
-18 -7 -23 -16 -23 -44 0 -41 -26 -99 -41 -90 -5 4 -12 -7 -15 -24 -4 -17 -10
-31 -15 -31 -8 0 -59 -105 -59 -124 0 -6 -9 -17 -20 -24 -12 -7 -20 -23 -20
-38 0 -14 4 -23 10 -19 6 3 10 -5 10 -19 0 -14 -5 -28 -11 -32 -16 -9 -58 16
-65 39 -5 15 -8 17 -14 6 -5 -7 -6 -17 -4 -21 3 -5 2 -8 -3 -7 -22 4 -32 -3
-35 -23 -2 -13 -8 -22 -14 -21 -6 1 -10 -11 -9 -27 1 -20 -2 -27 -12 -23 -7 3
-13 0 -13 -6 0 -7 -9 -21 -20 -33 -11 -12 -20 -30 -20 -41 0 -10 -9 -21 -19
-24 -12 -3 -23 -17 -26 -34 -4 -16 -11 -29 -15 -29 -5 0 -14 -18 -20 -41 -6
-22 -18 -43 -26 -46 -7 -3 -14 -11 -14 -17 0 -7 -5 -17 -12 -24 -6 -6 -13 -18
-14 -27 -1 -8 -12 -28 -23 -44 -12 -16 -21 -34 -21 -39 0 -6 -4 -12 -8 -14
-13 -5 -76 -100 -91 -136 -8 -18 -17 -32 -22 -32 -5 0 -9 -9 -9 -19 0 -11 -7
-26 -15 -35 -8 -8 -15 -21 -15 -30 0 -8 -6 -21 -14 -28 -21 -21 -46 -74 -47
-100 -1 -18 -2 -19 -6 -4 -3 12 -20 -12 -53 -79 -27 -53 -46 -103 -43 -111 4
-11 32 -14 134 -13 l129 0 1 32 c1 18 3 24 6 15 7 -28 40 -32 69 -9 15 12 23
21 18 22 -5 0 1 4 14 9 12 5 22 18 22 29 0 11 5 23 10 26 6 3 10 14 10 23 0
11 14 22 38 30 45 16 52 16 75 7 21 -9 22 8 1 29 -14 15 -14 16 0 16 9 0 16
-5 16 -11 0 -5 5 -7 10 -4 6 3 10 15 10 25 0 28 14 32 49 14 44 -22 67 -15 63
19 -2 16 3 29 11 33 10 3 13 18 11 45 -1 21 1 37 6 34 4 -3 10 4 13 15 5 20
27 28 27 10 0 -5 7 -10 15 -10 9 0 15 9 15 22 l0 21 25 -23 c14 -13 25 -29 25
-35 0 -7 10 -10 24 -8 18 4 22 10 18 25 -3 14 1 21 17 25 13 3 21 13 21 27 0
12 5 27 11 33 8 8 7 17 -3 32 -11 20 -10 24 8 40 18 14 21 25 17 62 -11 98 -8
194 5 191 18 -3 28 28 11 39 -18 11 2 32 26 27 26 -5 36 -41 20 -72 -16 -29
-10 -85 9 -87 6 -1 21 0 33 1 12 1 31 -4 42 -10 14 -7 21 -7 21 0 0 5 -5 10
-11 10 -6 0 -9 7 -6 15 4 8 2 17 -3 20 -17 11 6 50 28 47 11 -2 23 2 27 8 6
10 -19 14 -57 11 -19 -2 -24 24 -9 48 7 11 11 9 20 -8 7 -12 16 -19 20 -17 4
3 16 -1 27 -8 29 -21 42 -9 55 52 8 42 8 61 0 74 -6 10 -9 29 -5 42 7 29 -9
41 -36 26 -17 -9 -20 -7 -26 15 -3 14 -4 34 -1 45 3 11 1 23 -5 26 -6 4 -8 29
-3 68 7 62 7 275 0 311 -2 11 -4 24 -4 28 -1 5 -6 5 -13 1 -8 -5 -10 8 -5 48
3 31 2 60 -3 64 -5 5 -11 31 -14 59 -7 61 -24 81 -50 62z m-256 -943 c0 -8 -7
-14 -15 -14 -15 0 -21 21 -9 33 10 9 24 -2 24 -19z m10 -124 c0 -5 -4 -10 -10
-10 -5 0 -10 5 -10 10 0 6 5 10 10 10 6 0 10 -4 10 -10z"/>
<path d="M4885 1750 c-4 -6 -12 -7 -18 -3 -7 4 -7 1 1 -9 13 -16 42 -14 42 2
0 14 -18 21 -25 10z"/>
<path d="M2816 1579 c-11 -10 -16 -22 -13 -26 7 -6 36 25 37 40 0 10 -2 9 -24
-14z"/>
<path d="M2777 1543 c-4 -3 -7 -11 -7 -17 0 -6 5 -5 12 2 6 6 9 14 7 17 -3 3
-9 2 -12 -2z"/>
<path d="M2615 920 c-3 -5 -1 -10 4 -10 6 0 11 5 11 10 0 6 -2 10 -4 10 -3 0
-8 -4 -11 -10z"/>
<path d="M2596 885 c-3 -8 -1 -15 4 -15 6 0 10 7 10 15 0 8 -2 15 -4 15 -2 0
-6 -7 -10 -15z"/>
<path d="M3581 674 c0 -11 3 -14 6 -6 3 7 2 16 -1 19 -3 4 -6 -2 -5 -13z"/>
<path d="M3544 669 c-3 -6 -1 -16 5 -22 8 -8 11 -5 11 11 0 24 -5 28 -16 11z"/>
<path d="M3968 493 c-15 -30 -15 -32 7 -53 l22 -21 6 22 c4 13 2 28 -2 33 -5
6 -11 20 -13 31 -3 17 -6 15 -20 -12z"/>
<path d="M2316 415 c-9 -26 -7 -32 5 -12 6 10 9 21 6 23 -2 3 -7 -2 -11 -11z"/>
<path d="M3805 419 c-10 -15 3 -25 16 -12 7 7 7 13 1 17 -6 3 -14 1 -17 -5z"/>
<path d="M3281 354 c0 -11 3 -14 6 -6 3 7 2 16 -1 19 -3 4 -6 -2 -5 -13z"/>
<path d="M4796 361 c-11 -17 31 -39 87 -45 47 -4 59 -2 64 11 10 26 -25 43
-88 43 -32 0 -60 -4 -63 -9z"/>
<path d="M5690 117 c0 -22 -29 -34 -40 -17 -7 11 -11 11 -24 1 -8 -7 -19 -10
-24 -7 -5 3 -9 -1 -9 -9 0 -11 12 -15 41 -16 23 0 58 -1 79 -3 20 -2 37 1 37
6 0 4 7 8 15 8 8 0 15 -5 15 -11 0 -8 11 -9 33 -5 22 4 27 3 17 -3 -12 -9 -12
-11 3 -17 10 -4 23 -2 29 4 17 17 -9 42 -43 42 -15 0 -31 5 -34 10 -4 6 -15 8
-26 5 -11 -4 -19 -2 -19 5 0 7 -7 9 -17 6 -9 -4 -20 -1 -25 6 -6 10 -8 8 -8
-5z"/>
<path d="M5482 100 c13 -20 58 -28 58 -10 0 6 -9 10 -19 10 -11 0 -23 5 -26
10 -3 6 -10 10 -16 10 -5 0 -4 -9 3 -20z"/>
</g>
</svg>
